<svg width="24" height="24" viewBox="0 0 24 24" fill="none" xmlns="http://www.w3.org/2000/svg">
<path d="M19 0H5C3.67441 0.00173221 2.40356 0.576962 1.46622 1.59951C0.528882 2.62206 0.00158786 4.00844 0 5.45455L0 14.1818C0.00158786 15.6279 0.528882 17.0143 1.46622 18.0369C2.40356 19.0594 3.67441 19.6346 5 19.6364H11V21.8182H7C6.73478 21.8182 6.48043 21.9331 6.29289 22.1377C6.10536 22.3423 6 22.6198 6 22.9091C6 23.1984 6.10536 23.4759 6.29289 23.6805C6.48043 23.8851 6.73478 24 7 24H17C17.2652 24 17.5196 23.8851 17.7071 23.6805C17.8946 23.4759 18 23.1984 18 22.9091C18 22.6198 17.8946 22.3423 17.7071 22.1377C17.5196 21.9331 17.2652 21.8182 17 21.8182H13V19.6364H19C20.3256 19.6346 21.5964 19.0594 22.5338 18.0369C23.4711 17.0143 23.9984 15.6279 24 14.1818V5.45455C23.9984 4.00844 23.4711 2.62206 22.5338 1.59951C21.5964 0.576962 20.3256 0.00173221 19 0ZM22 14.1818C22 15.0498 21.6839 15.8822 21.1213 16.496C20.5587 17.1097 19.7956 17.4545 19 17.4545H5C4.20435 17.4545 3.44129 17.1097 2.87868 16.496C2.31607 15.8822 2 15.0498 2 14.1818V5.45455C2 4.58656 2.31607 3.75413 2.87868 3.14038C3.44129 2.52662 4.20435 2.18182 5 2.18182H19C19.7956 2.18182 20.5587 2.52662 21.1213 3.14038C21.6839 3.75413 22 4.58656 22 5.45455V14.1818ZM20 9.81818C20 10.1075 19.8946 10.385 19.7071 10.5896C19.5196 10.7942 19.2652 10.9091 19 10.9091H16.035L14.335 13.6964C14.2434 13.8462 14.1192 13.9689 13.9735 14.0536C13.8278 14.1384 13.6651 14.1824 13.5 14.1818C13.479 14.1818 13.458 14.1818 13.438 14.1818C13.263 14.1701 13.094 14.1083 12.9478 14.0028C12.8016 13.8973 12.6834 13.7518 12.605 13.5807L10.376 8.71418L9.332 10.4236C9.24065 10.573 9.11692 10.6955 8.97178 10.7801C8.82665 10.8648 8.66459 10.9091 8.5 10.9091H5C4.73478 10.9091 4.48043 10.7942 4.29289 10.5896C4.10536 10.385 4 10.1075 4 9.81818C4 9.52885 4.10536 9.25138 4.29289 9.04679C4.48043 8.84221 4.73478 8.72727 5 8.72727H7.965L9.665 5.94C9.76124 5.77916 9.89516 5.64933 10.0529 5.56397C10.2106 5.47861 10.3864 5.44083 10.562 5.45455C10.737 5.4663 10.906 5.52802 11.0522 5.63352C11.1984 5.73902 11.3166 5.88459 11.395 6.05564L13.624 10.92L14.668 9.21055C14.7596 9.06159 14.8834 8.93956 15.0285 8.85526C15.1737 8.77097 15.3356 8.72701 15.5 8.72727H19C19.2652 8.72727 19.5196 8.84221 19.7071 9.04679C19.8946 9.25138 20 9.52885 20 9.81818Z" fill="white"/>
<rect x="3.375" y="4.03955" width="17.25" height="11.7614" fill="#1CCAFF"/>
<path d="M15.75 14.7101C15.9986 14.7101 16.2371 14.6023 16.4129 14.4105C16.5887 14.2187 16.6875 13.9586 16.6875 13.6874V9.59646C16.6875 9.32521 16.5887 9.06508 16.4129 8.87328C16.2371 8.68148 15.9986 8.57373 15.75 8.57373C15.5014 8.57373 15.2629 8.68148 15.0871 8.87328C14.9113 9.06508 14.8125 9.32521 14.8125 9.59646V13.6874C14.8125 13.9586 14.9113 14.2187 15.0871 14.4105C15.2629 14.6023 15.5014 14.7101 15.75 14.7101Z" fill="white"/>
<path d="M8.25 14.7101C8.49864 14.7101 8.7371 14.6023 8.91291 14.4105C9.08873 14.2187 9.1875 13.9586 9.1875 13.6874V9.59646C9.1875 9.32521 9.08873 9.06508 8.91291 8.87328C8.7371 8.68148 8.49864 8.57373 8.25 8.57373C8.00136 8.57373 7.7629 8.68148 7.58709 8.87328C7.41127 9.06508 7.3125 9.32521 7.3125 9.59646V13.6874C7.3125 13.9586 7.41127 14.2187 7.58709 14.4105C7.7629 14.6023 8.00136 14.7101 8.25 14.7101Z" fill="white"/>
<path d="M12 14.71C12.2486 14.71 12.4871 14.6023 12.6629 14.4105C12.8387 14.2187 12.9375 13.9585 12.9375 13.6873V6.18728C12.9375 5.91603 12.8387 5.6559 12.6629 5.4641C12.4871 5.2723 12.2486 5.16455 12 5.16455C11.7514 5.16455 11.5129 5.2723 11.3371 5.4641C11.1613 5.6559 11.0625 5.91603 11.0625 6.18728V13.6873C11.0625 13.9585 11.1613 14.2187 11.3371 14.4105C11.5129 14.6023 11.7514 14.71 12 14.71Z" fill="white"/>
</svg>
