<svg width="24" height="24" viewBox="0 0 24 24" fill="none" xmlns="http://www.w3.org/2000/svg">
<g clip-path="url(#clip0_203_48)">
<path d="M22.8283 9.17192L18.9493 5.29292C18.7607 5.11076 18.5081 5.00997 18.2459 5.01224C17.9837 5.01452 17.7329 5.11969 17.5475 5.3051C17.3621 5.49051 17.2569 5.74132 17.2546 6.00352C17.2523 6.26571 17.3531 6.51832 17.5353 6.70692L21.4143 10.5859C21.5295 10.7034 21.6302 10.8344 21.7143 10.9759C21.6993 10.9759 21.6873 10.9679 21.6723 10.9679L5.98828 10.9999C5.72306 10.9999 5.46871 11.1053 5.28117 11.2928C5.09364 11.4803 4.98828 11.7347 4.98828 11.9999C4.98828 12.2651 5.09364 12.5195 5.28117 12.707C5.46871 12.8946 5.72306 12.9999 5.98828 12.9999L21.6663 12.9679C21.6943 12.9679 21.7173 12.9539 21.7443 12.9519C21.6556 13.1211 21.5431 13.2767 21.4103 13.4139L17.5313 17.2929C17.4358 17.3852 17.3596 17.4955 17.3072 17.6175C17.2548 17.7395 17.2272 17.8707 17.226 18.0035C17.2249 18.1363 17.2502 18.268 17.3005 18.3909C17.3507 18.5138 17.425 18.6254 17.5189 18.7193C17.6128 18.8132 17.7244 18.8875 17.8473 18.9377C17.9702 18.988 18.1019 19.0133 18.2347 19.0122C18.3675 19.011 18.4987 18.9834 18.6207 18.931C18.7427 18.8786 18.853 18.8024 18.9453 18.7069L22.8243 14.8279C23.5742 14.0778 23.9954 13.0606 23.9954 11.9999C23.9954 10.9393 23.5742 9.92203 22.8243 9.17192H22.8283Z" fill="#333333"/>
<path d="M7 22H5C4.20435 22 3.44129 21.6839 2.87868 21.1213C2.31607 20.5587 2 19.7956 2 19V5C2 4.20435 2.31607 3.44129 2.87868 2.87868C3.44129 2.31607 4.20435 2 5 2H7C7.26522 2 7.51957 1.89464 7.70711 1.70711C7.89464 1.51957 8 1.26522 8 1C8 0.734784 7.89464 0.48043 7.70711 0.292893C7.51957 0.105357 7.26522 0 7 0L5 0C3.6744 0.00158786 2.40356 0.528882 1.46622 1.46622C0.528882 2.40356 0.00158786 3.6744 0 5L0 19C0.00158786 20.3256 0.528882 21.5964 1.46622 22.5338C2.40356 23.4711 3.6744 23.9984 5 24H7C7.26522 24 7.51957 23.8946 7.70711 23.7071C7.89464 23.5196 8 23.2652 8 23C8 22.7348 7.89464 22.4804 7.70711 22.2929C7.51957 22.1054 7.26522 22 7 22Z" fill="#333333"/>
</g>
<defs>
<clipPath id="clip0_203_48">
<rect width="24" height="24" fill="white"/>
</clipPath>
</defs>
</svg>
