<svg width="24" height="24" viewBox="0 0 24 24" fill="none" xmlns="http://www.w3.org/2000/svg">
<g clip-path="url(#clip0_203_21)">
<path d="M23.2575 16.2002L20.6575 6.82917C20.1023 4.82459 18.8925 3.06331 17.2207 1.82566C15.549 0.588005 13.5113 -0.0549039 11.4319 -0.000744217C9.35258 0.0534155 7.3511 0.801531 5.74603 2.12454C4.14096 3.44754 3.02454 5.26941 2.57445 7.30017L0.563451 16.3502C0.466143 16.7886 0.468517 17.2433 0.570396 17.6807C0.672275 18.1181 0.87106 18.5271 1.15209 18.8774C1.43311 19.2277 1.7892 19.5105 2.19409 19.7048C2.59898 19.8991 3.04234 20.0001 3.49145 20.0002H7.09845C7.32797 21.1305 7.94118 22.1466 8.83419 22.8766C9.7272 23.6065 10.8451 24.0052 11.9985 24.0052C13.1518 24.0052 14.2697 23.6065 15.1627 22.8766C16.0557 22.1466 16.6689 21.1305 16.8985 20.0002H20.3685C20.8306 20 21.2864 19.893 21.7003 19.6876C22.1143 19.4823 22.4752 19.184 22.755 18.8162C23.0347 18.4484 23.2257 18.0209 23.313 17.5672C23.4004 17.1134 23.3817 16.6455 23.2585 16.2002H23.2575ZM11.9985 22.0002C11.3802 21.9976 10.7778 21.8041 10.2738 21.4461C9.76968 21.0881 9.38853 20.5831 9.18245 20.0002H14.8145C14.6084 20.5831 14.2272 21.0881 13.7231 21.4461C13.2191 21.8041 12.6167 21.9976 11.9985 22.0002V22.0002ZM21.1635 17.6052C21.0702 17.7289 20.9492 17.829 20.8103 17.8976C20.6714 17.9662 20.5184 18.0013 20.3635 18.0002H3.49145C3.34171 18.0001 3.19389 17.9665 3.0589 17.9017C2.9239 17.8369 2.80519 17.7426 2.7115 17.6258C2.61782 17.509 2.55157 17.3726 2.51764 17.2268C2.4837 17.0809 2.48296 16.9293 2.51545 16.7832L4.52645 7.73317C4.8808 6.13938 5.75776 4.70978 7.01791 3.67162C8.27806 2.63347 9.84907 2.04634 11.4812 2.00359C13.1134 1.96083 14.713 2.46489 16.0258 3.43564C17.3385 4.40639 18.2891 5.78812 18.7265 7.36117L21.3265 16.7322C21.3689 16.8804 21.3763 17.0364 21.348 17.1879C21.3197 17.3394 21.2565 17.4823 21.1635 17.6052V17.6052Z" fill="white"/>
</g>
<defs>
<clipPath id="clip0_203_21">
<rect width="24" height="24" fill="white"/>
</clipPath>
</defs>
</svg>
