<svg width="24" height="24" viewBox="0 0 24 24" fill="none" xmlns="http://www.w3.org/2000/svg">
<g clip-path="url(#clip0_203_53)">
<path d="M21.964 12.875C21.7712 15.1548 20.8047 17.3002 19.2249 18.9552C17.6451 20.6102 15.547 21.6754 13.2786 21.9739C11.0102 22.2725 8.70789 21.7866 6.75365 20.5967C4.79941 19.4069 3.31071 17.5846 2.53452 15.4324C1.75833 13.2801 1.74132 10.9271 2.4863 8.76383C3.23129 6.60055 4.69349 4.75699 6.63032 3.53901C8.56715 2.32103 10.8622 1.80184 13.1347 2.06758C15.4071 2.33332 17.5205 3.36801 19.124 5H16.002C15.7368 5 15.4825 5.10536 15.2949 5.29289C15.1074 5.48043 15.002 5.73478 15.002 6C15.002 6.26522 15.1074 6.51957 15.2949 6.70711C15.4825 6.89464 15.7368 7 16.002 7H20.145C20.6375 6.99974 21.1096 6.804 21.4578 6.45581C21.806 6.10761 22.0018 5.63543 22.002 5.143V1C22.002 0.734784 21.8967 0.48043 21.7091 0.292893C21.5216 0.105357 21.2672 0 21.002 0V0C20.7368 0 20.4825 0.105357 20.2949 0.292893C20.1074 0.48043 20.002 0.734784 20.002 1V3.078C17.9907 1.28073 15.4319 0.214484 12.7395 0.0517113C10.0471 -0.111061 7.37847 0.639157 5.16528 2.18103C2.95208 3.72291 1.32372 5.96628 0.543536 8.54832C-0.236644 11.1304 -0.123016 13.9001 0.866043 16.4095C1.8551 18.919 3.66176 21.0214 5.99381 22.3768C8.32587 23.7322 11.047 24.2614 13.717 23.8786C16.387 23.4958 18.8499 22.2236 20.7072 20.2676C22.5646 18.3116 23.7078 15.7863 23.952 13.1C23.9649 12.9607 23.9487 12.8203 23.9044 12.6877C23.86 12.555 23.7885 12.4331 23.6944 12.3296C23.6004 12.2261 23.4858 12.1434 23.3579 12.0866C23.2301 12.0299 23.0919 12.0004 22.952 12C22.7081 11.9971 22.4718 12.085 22.2891 12.2468C22.1065 12.4085 21.9906 12.6325 21.964 12.875V12.875Z" fill="#333333"/>
</g>
<defs>
<clipPath id="clip0_203_53">
<rect width="24" height="24" fill="white"/>
</clipPath>
</defs>
</svg>
