<svg width="512" height="512" viewBox="0 0 512 512" fill="none" xmlns="http://www.w3.org/2000/svg">
<g clip-path="url(#clip0_203_57)">
<path d="M373.335 40.896C349.313 41.2696 325.814 47.9755 305.213 60.3364C284.611 72.6974 267.636 90.2756 256.002 111.296C244.367 90.2756 227.392 72.6974 206.791 60.3364C186.189 47.9755 162.691 41.2696 138.668 40.896C100.374 42.5598 64.2941 59.3121 38.3117 87.493C12.3294 115.674 -1.44363 152.993 0.00171437 191.296C0.00171437 288.299 102.103 394.24 187.735 466.069C206.854 482.136 231.028 490.945 256.002 490.945C280.975 490.945 305.149 482.136 324.268 466.069C409.9 394.24 512.002 288.299 512.002 191.296C513.447 152.993 499.674 115.674 473.692 87.493C447.709 59.3121 411.63 42.5598 373.335 40.896ZM296.855 433.429C285.42 443.059 270.951 448.339 256.002 448.339C241.052 448.339 226.583 443.059 215.148 433.429C105.538 341.461 42.6684 253.227 42.6684 191.296C41.21 164.303 50.4842 137.829 68.4681 117.647C86.4521 97.465 111.687 85.2128 138.668 83.5627C165.65 85.2128 190.885 97.465 208.869 117.647C226.853 137.829 236.127 164.303 234.668 191.296C234.668 196.954 236.916 202.38 240.917 206.381C244.918 210.382 250.344 212.629 256.002 212.629C261.66 212.629 267.086 210.382 271.087 206.381C275.087 202.38 277.335 196.954 277.335 191.296C275.877 164.303 285.151 137.829 303.135 117.647C321.119 97.465 346.353 85.2128 373.335 83.5627C400.317 85.2128 425.551 97.465 443.535 117.647C461.519 137.829 470.793 164.303 469.335 191.296C469.335 253.227 406.466 341.461 296.855 433.344V433.429Z" fill="#ED4955"/>
</g>
<defs>
<clipPath id="clip0_203_57">
<rect width="512" height="512" fill="white"/>
</clipPath>
</defs>
</svg>
