<svg width="22" height="22" viewBox="0 0 22 22" fill="none" xmlns="http://www.w3.org/2000/svg">
<g clip-path="url(#clip0_1668_2)">
<path d="M19.5884 2.61328C18.4842 1.43099 16.9373 0.759114 15.3228 0.753906C13.6978 0.759114 12.1509 1.43099 11.0415 2.61328L10.6665 3.01432L10.2915 2.61328C8.0988 0.259114 4.40609 0.123698 2.04671 2.3112C1.94255 2.41016 1.84359 2.50911 1.74463 2.61328C-0.583496 5.1237 -0.583496 9.00391 1.74463 11.5091L10.1144 20.3424C10.4061 20.6445 10.8853 20.6549 11.1925 20.3685C11.203 20.3581 11.2134 20.3529 11.2186 20.3424L19.5884 11.5091C21.9165 9.00391 21.9165 5.1237 19.5884 2.61328Z" fill="#6661E7"/>
</g>
<defs>
<clipPath id="clip0_1668_2">
<rect width="21.3333" height="21.3333" fill="white"/>
</clipPath>
</defs>
</svg>
