<?xml version="1.0"?>
<svg xmlns="http://www.w3.org/2000/svg" xmlns:xlink="http://www.w3.org/1999/xlink" xmlns:svgjs="http://svgjs.com/svgjs" version="1.1" width="512" height="512" x="0" y="0" viewBox="0 0 416 416" style="enable-background:new 0 0 512 512" xml:space="preserve" class=""><g><g xmlns="http://www.w3.org/2000/svg"><path d="m241.6 320h-161.6c-44.161-.053-79.947-35.839-80-80v-128c.053-44.161 35.839-79.947 80-80h224c44.161.053 79.947 35.839 80 80v112c0 8.837-7.163 16-16 16s-16-7.163-16-16v-112c0-26.51-21.49-48-48-48h-224c-26.51 0-48 21.49-48 48v128c0 26.51 21.49 48 48 48h161.6c8.837 0 16 7.163 16 16s-7.163 16-16 16z" fill="#E175F9" data-original="#000000" class=""/><path d="m320 384c-53.019 0-96-42.981-96-96s42.981-96 96-96 96 42.981 96 96c-.053 52.997-43.003 95.947-96 96zm0-160c-35.346 0-64 28.654-64 64s28.654 64 64 64 64-28.654 64-64-28.654-64-64-64z" fill="#E175F9" data-original="#000000" class=""/><path d="m192 144h-96c-8.837 0-16-7.163-16-16s7.163-16 16-16h96c8.837 0 16 7.163 16 16s-7.163 16-16 16z" fill="#E175F9" data-original="#000000" class=""/><path d="m160 207.136h-64c-8.837 0-16-7.163-16-16s7.163-16 16-16h64c8.837 0 16 7.163 16 16s-7.163 16-16 16z" fill="#E175F9" data-original="#000000" class=""/><path d="m320 336c-8.837 0-16-7.163-16-16v-64c0-8.837 7.163-16 16-16s16 7.163 16 16v64c0 8.837-7.163 16-16 16z" fill="#E175F9" data-original="#000000" class=""/><path d="m352 304h-64c-8.837 0-16-7.163-16-16s7.163-16 16-16h64c8.837 0 16 7.163 16 16s-7.163 16-16 16z" fill="#E175F9" data-original="#000000" class=""/></g></g></svg>
