<?xml version="1.0"?>
<svg xmlns="http://www.w3.org/2000/svg" xmlns:xlink="http://www.w3.org/1999/xlink" xmlns:svgjs="http://svgjs.com/svgjs" version="1.1" width="512" height="512" x="0" y="0" viewBox="0 0 24 24" style="enable-background:new 0 0 512 512" xml:space="preserve"><g><g xmlns="http://www.w3.org/2000/svg" id="_02_Additional_Add_New" data-name="02 Additional, Add, New"><path d="m4 21h11v2h-11a3 3 0 0 1 -3-3v-16a3 3 0 0 1 3-3h11a1 1 0 0 1 .8.4l3 4a1 1 0 0 1 .2.6v5h-2v-4.67l-2.5-3.33h-10.5a1 1 0 0 0 -1 1v16a1 1 0 0 0 1 1zm19-4h-4v-4h-2v4h-4v2h4v4h2v-4h4zm-9-11h-8v2h8zm-8 6h6v-2h-6z" fill="#E175F9" data-original="#000000"/></g></g></svg>
