<?xml version="1.0"?>
<svg xmlns="http://www.w3.org/2000/svg" xmlns:xlink="http://www.w3.org/1999/xlink" xmlns:svgjs="http://svgjs.com/svgjs" version="1.1" width="512" height="512" x="0" y="0" viewBox="0 0 24 24" style="enable-background:new 0 0 512 512" xml:space="preserve" class=""><g><g xmlns="http://www.w3.org/2000/svg" id="Icon"><path d="m11.5 20.263h-8.55c-.053 0-.104-.022-.141-.059-.038-.038-.059-.088-.059-.141 0-.001 0-1.45 0-1.45 0-.831.593-1.563 1.507-2.185 1.632-1.114 4.273-1.816 7.243-1.816.414 0 .75-.336.75-.75 0-.413-.336-.75-.75-.75-3.322 0-6.263.831-8.089 2.076-1.393.95-2.161 2.157-2.161 3.424v1.451c0 .45.179.883.498 1.202.319.318.751.498 1.202.497 1.479.001 8.55.001 8.55.001.414-.001.75-.337.75-.751 0-.413-.336-.75-.75-.749z" fill="#E175F9" data-original="#000000" class=""/><path d="m11.5 1.25c-3.036 0-5.5 2.464-5.5 5.5s2.464 5.5 5.5 5.5 5.5-2.464 5.5-5.5-2.464-5.5-5.5-5.5zm0 1.5c2.208 0 4 1.792 4 4s-1.792 4-4 4-4-1.792-4-4 1.792-4 4-4z" fill="#E175F9" data-original="#000000" class=""/><path d="m15.732 16.793 2.475 2.475c.293.292.768.292 1.061 0 .292-.293.292-.768 0-1.061l-2.475-2.475c-.293-.292-.768-.292-1.061 0-.292.293-.292.768 0 1.061z" fill="#E175F9" data-original="#000000" class=""/><path d="m16.793 19.268 2.475-2.475c.292-.293.292-.768 0-1.061-.293-.292-.768-.292-1.061 0l-2.475 2.475c-.292.293-.292.768 0 1.061.293.292.768.292 1.061 0z" fill="#E175F9" data-original="#000000" class=""/><path d="m17.5 12.25c-2.898 0-5.25 2.352-5.25 5.25s2.352 5.25 5.25 5.25 5.25-2.352 5.25-5.25-2.352-5.25-5.25-5.25zm0 1.5c2.07 0 3.75 1.68 3.75 3.75s-1.68 3.75-3.75 3.75-3.75-1.68-3.75-3.75 1.68-3.75 3.75-3.75z" fill="#E175F9" data-original="#000000" class=""/></g></g></svg>
