<?xml version="1.0"?>
<svg xmlns="http://www.w3.org/2000/svg" xmlns:xlink="http://www.w3.org/1999/xlink" xmlns:svgjs="http://svgjs.com/svgjs" version="1.1" width="512" height="512" x="0" y="0" viewBox="0 0 512 512" style="enable-background:new 0 0 512 512" xml:space="preserve"><g><g xmlns="http://www.w3.org/2000/svg"><path d="m512 0h-512v454.903h138.812c27.296 34.742 69.68 57.097 117.188 57.097s89.892-22.355 117.188-57.097h138.812zm-30 120.229h-119.9l66.514-90.229h53.386zm-194.07 0 66.515-90.229h36.898l-66.514 90.229zm29.244-90.229-66.514 90.229h-220.66v-90.229zm-228.044 316.918v-102.851h77.319c-32.017 24.161-54.01 60.926-58.541 102.851zm166.87 135.082c-65.598 0-118.966-53.368-118.966-118.967 0-65.598 53.368-118.966 118.966-118.966 65.599 0 118.967 53.368 118.967 118.966 0 65.599-53.368 118.967-118.967 118.967zm135.497-57.097c8.508-18.559 13.308-39.154 13.457-60.836h46.47v-30h-49.294c-2.064-10.43-5.219-20.471-9.343-30h58.637v-30h-76.013c-8.483-11.356-18.547-21.463-29.86-30h105.873v-30h-392.294v162.851h48.556c1.577 16.975 6.008 33.132 12.817 47.985h-90.503v-274.674h452v274.674z" fill="#E175F9" data-original="#000000"/><path d="m60.13 59.844h30.001v30h-30.001z" fill="#E175F9" data-original="#000000"/><path d="m120.13 59.844h30.001v30h-30.001z" fill="#E175F9" data-original="#000000"/><path d="m180.13 59.844h30.001v30h-30.001z" fill="#E175F9" data-original="#000000"/><path d="m256 325.596c6.21 0 11.262 5.052 11.262 11.262h30c0-17.461-10.907-32.412-26.262-38.427v-24.341h-30v24.341c-15.354 6.015-26.262 20.966-26.262 38.427 0 22.752 18.51 41.262 41.262 41.262h1.964c5.276.932 9.298 5.55 9.298 11.09 0 6.21-5.052 11.262-11.262 11.262s-11.262-5.052-11.262-11.262h-30c0 17.461 10.907 32.412 26.262 38.427v24.342h30v-24.342c15.354-6.015 26.262-20.966 26.262-38.427 0-22.752-18.51-41.262-41.262-41.262h-1.964c-5.277-.932-9.298-5.55-9.298-11.09 0-6.211 5.052-11.262 11.262-11.262z" fill="#E175F9" data-original="#000000"/></g></g></svg>
