<?xml version="1.0"?>
<svg xmlns="http://www.w3.org/2000/svg" xmlns:xlink="http://www.w3.org/1999/xlink" xmlns:svgjs="http://svgjs.com/svgjs" version="1.1" width="512" height="512" x="0" y="0" viewBox="0 0 64 64" style="enable-background:new 0 0 512 512" xml:space="preserve" class=""><g><g xmlns="http://www.w3.org/2000/svg" id="Live_TV" data-name="Live TV"><path d="m22.00977 45.0498v-14.0996a5.005 5.005 0 0 1 7.53613-4.30957l11.97949 7.0498a5.00042 5.00042 0 0 1 0 8.61914l-11.97949 7.04981a5.00376 5.00376 0 0 1 -7.53613-4.30958zm6-12.35058v10.60156l9.00781-5.30078z" fill="#E175F9" data-original="#000000" class=""/><path d="m50 16h-8.36523l7.39453-6.79c2.918-2.682-1.13188-7.101-4.0586-4.41992l-12.208 11.20992h-2.01758l-9.71582-8.92187c-2.92156-2.67849-6.98074 1.73407-4.0586 4.41987l4.90259 4.502h-7.87329a10.01177 10.01177 0 0 0 -10 10v24a10.01177 10.01177 0 0 0 10 10h36a10.01177 10.01177 0 0 0 10-10v-24a10.01177 10.01177 0 0 0 -10-10zm4 34a4.004 4.004 0 0 1 -4 4h-36a4.004 4.004 0 0 1 -4-4v-24a4.004 4.004 0 0 1 4-4h36a4.004 4.004 0 0 1 4 4z" fill="#E175F9" data-original="#000000" class=""/></g></g></svg>
