<?xml version="1.0"?>
<svg xmlns="http://www.w3.org/2000/svg" xmlns:xlink="http://www.w3.org/1999/xlink" xmlns:svgjs="http://svgjs.com/svgjs" version="1.1" width="512" height="512" x="0" y="0" viewBox="0 0 512.475 512.475" style="enable-background:new 0 0 512 512" xml:space="preserve" class=""><g>
<g xmlns="http://www.w3.org/2000/svg">
	<g id="object_13_">
		<g>
			<path d="M366.315,309.699c-9.819,0-17.778-7.96-17.777-17.779c0-4.715,1.873-9.236,5.207-12.57l97.8-97.801     c33.297-33.296,33.297-87.281,0.001-120.578s-87.281-33.297-120.578-0.001l0,0l-97.799,97.8c-6.943,6.943-18.2,6.943-25.142,0     c-6.943-6.943-6.943-18.2,0-25.142l97.806-97.8c46.96-47.402,123.456-47.759,170.857-0.799s47.759,123.456,0.799,170.857     c-0.266,0.268-0.533,0.536-0.802,0.802l-97.8,97.801C375.556,307.829,371.031,309.704,366.315,309.699z" fill="#E175F9" data-original="#000000" class=""/>
		</g>
		<g>
			<path d="M120.836,512.434C54.143,512.477,0.042,458.445,0,391.751c-0.02-32.074,12.72-62.838,35.41-85.507l97.8-97.801     c6.943-6.943,18.2-6.943,25.143,0.001c6.943,6.943,6.943,18.2,0,25.143l-97.8,97.799c-33.296,33.296-33.297,87.28-0.001,120.576     s87.28,33.297,120.576,0.001l97.8-97.801c6.997-6.888,18.253-6.801,25.141,0.196c6.813,6.92,6.813,18.026,0,24.945     l-97.796,97.801C183.628,499.777,152.881,512.492,120.836,512.434z" fill="#E175F9" data-original="#000000" class=""/>
		</g>
		<g>
			<path d="M161.964,368.327c-9.819,0-17.778-7.96-17.777-17.779c0-4.715,1.873-9.236,5.207-12.57l188.167-188.167     c6.974-6.912,18.23-6.861,25.142,0.113c6.868,6.93,6.868,18.1,0,25.029L174.536,363.12     C171.205,366.459,166.68,368.333,161.964,368.327z" fill="#E175F9" data-original="#000000" class=""/>
		</g>
	</g>
</g>















</g></svg>
