<svg width="20" height="20" viewBox="0 0 20 20" fill="none" xmlns="http://www.w3.org/2000/svg">
<path d="M18.5553 16.9995H16C15.8594 16.5184 15.5667 16.0958 15.1656 15.7952C14.7646 15.4945 14.2769 15.332 13.7757 15.332C13.2745 15.332 12.7867 15.4945 12.3857 15.7952C11.9847 16.0958 11.6919 16.5184 11.5513 16.9995H0.666667C0.489856 16.9995 0.320286 17.0697 0.195262 17.1947C0.0702379 17.3197 0 17.4893 0 17.6661C0 17.8429 0.0702379 18.0125 0.195262 18.1375C0.320286 18.2626 0.489856 18.3328 0.666667 18.3328H11.5533C11.6945 18.8131 11.9873 19.2348 12.3881 19.5347C12.7889 19.8347 13.2761 19.9968 13.7767 19.9968C14.2773 19.9968 14.7644 19.8347 15.1652 19.5347C15.566 19.2348 15.8589 18.8131 16 18.3328H18.5533C18.7301 18.3328 18.8997 18.2626 19.0247 18.1375C19.1498 18.0125 19.22 17.8429 19.22 17.6661C19.22 17.4893 19.1498 17.3197 19.0247 17.1947C18.8997 17.0697 18.7301 16.9995 18.5533 16.9995H18.5553ZM13.778 18.6661C13.5802 18.6661 13.3869 18.6075 13.2224 18.4976C13.058 18.3877 12.9298 18.2315 12.8541 18.0488C12.7784 17.8661 12.7586 17.665 12.7972 17.471C12.8358 17.2771 12.931 17.0989 13.0709 16.959C13.2107 16.8192 13.3889 16.7239 13.5829 16.6853C13.7769 16.6468 13.978 16.6666 14.1607 16.7422C14.3434 16.8179 14.4996 16.9461 14.6095 17.1106C14.7193 17.275 14.778 17.4683 14.778 17.6661C14.778 17.9313 14.6726 18.1857 14.4851 18.3732C14.2976 18.5608 14.0432 18.6661 13.778 18.6661Z" fill="#00C75E"/>
<path d="M17.9067 0H2.09333C1.53831 0.000529519 1.00617 0.221247 0.613708 0.613708C0.221247 1.00617 0.000529519 1.53831 0 2.09333V12.5733C0.000529519 13.1284 0.221247 13.6605 0.613708 14.053C1.00617 14.4454 1.53831 14.6661 2.09333 14.6667H17.9067C18.4617 14.6661 18.9938 14.4454 19.3863 14.053C19.7788 13.6605 19.9995 13.1284 20 12.5733V2.09333C19.9995 1.53831 19.7788 1.00617 19.3863 0.613708C18.9938 0.221247 18.4617 0.000529519 17.9067 0V0ZM18.6667 12.5733C18.6665 12.7748 18.5864 12.9681 18.4439 13.1105C18.3014 13.253 18.1082 13.3332 17.9067 13.3333H2.09333C1.89182 13.3332 1.69862 13.253 1.55613 13.1105C1.41364 12.9681 1.33351 12.7748 1.33333 12.5733V2.09333C1.33351 1.89182 1.41364 1.69862 1.55613 1.55613C1.69862 1.41364 1.89182 1.33351 2.09333 1.33333H17.9067C18.1082 1.33351 18.3014 1.41364 18.4439 1.55613C18.5864 1.69862 18.6665 1.89182 18.6667 2.09333V12.5733Z" fill="#00C75E"/>
<path d="M13.6863 6.7667L8.35301 3.43337C8.25209 3.37029 8.13614 3.33538 8.01717 3.33226C7.89821 3.32914 7.78058 3.35791 7.6765 3.4156C7.57241 3.47329 7.48566 3.55779 7.42526 3.66033C7.36486 3.76286 7.33301 3.8797 7.33301 3.9987V10.6654C7.33301 10.7844 7.36486 10.9012 7.42526 11.0037C7.48566 11.1063 7.57241 11.1908 7.6765 11.2485C7.78058 11.3062 7.89821 11.3349 8.01717 11.3318C8.13614 11.3287 8.25209 11.2938 8.35301 11.2307L13.6863 7.89737C13.7828 7.83758 13.8624 7.75415 13.9176 7.65498C13.9728 7.55582 14.0018 7.4442 14.0018 7.3307C14.0018 7.2172 13.9728 7.10558 13.9176 7.00642C13.8624 6.90725 13.7828 6.82382 13.6863 6.76403V6.7667ZM8.66634 9.46537V5.1987L12.075 7.33203L8.66634 9.46537Z" fill="#00C75E"/>
</svg>
