<svg width="512" height="512" viewBox="0 0 512 512" fill="none" xmlns="http://www.w3.org/2000/svg">
<g clip-path="url(#clip0_1670_16)">
<path d="M136.106 258.512C158.809 258.512 177.279 240.003 177.279 217.252C177.279 194.501 158.809 175.992 136.106 175.992C113.403 175.992 94.9331 194.501 94.9331 217.252C94.9331 240.003 113.403 258.512 136.106 258.512ZM136.106 190.993C150.538 190.993 162.279 202.773 162.279 217.253C162.279 231.733 150.538 243.513 136.106 243.513C121.674 243.513 109.933 231.733 109.933 217.253C109.933 202.773 121.674 190.993 136.106 190.993Z" fill="#333333"/>
<path d="M300.803 217.252C300.803 194.502 282.333 175.992 259.63 175.992C236.927 175.992 218.457 194.501 218.457 217.252C218.457 240.003 236.927 258.512 259.63 258.512C282.333 258.512 300.803 240.003 300.803 217.252ZM259.63 243.512C245.198 243.512 233.457 231.732 233.457 217.252C233.457 202.772 245.198 190.992 259.63 190.992C274.062 190.992 285.803 202.772 285.803 217.252C285.803 231.732 274.062 243.512 259.63 243.512Z" fill="#333333"/>
<path d="M424.327 217.252C424.327 194.502 405.857 175.992 383.154 175.992C360.451 175.992 341.981 194.501 341.981 217.252C341.981 240.003 360.451 258.512 383.154 258.512C405.857 258.512 424.327 240.003 424.327 217.252ZM356.98 217.252C356.98 202.773 368.721 190.992 383.153 190.992C397.585 190.992 409.326 202.772 409.326 217.252C409.326 231.732 397.585 243.512 383.153 243.512C368.721 243.512 356.98 231.732 356.98 217.252Z" fill="#333333"/>
<path d="M241.021 378.206H221.648C220.148 378.206 218.683 378.656 217.441 379.497L105.426 455.384C102.114 457.627 99.163 455.902 98.337 455.319C97.502 454.731 94.857 452.506 95.868 448.582L111.595 387.578C112.174 385.332 111.681 382.945 110.261 381.112C108.841 379.279 106.652 378.206 104.333 378.206H63.343C36.687 378.206 15 356.456 15 329.72V103.994C15 77.2588 36.687 55.5078 63.343 55.5078H97.904C102.046 55.5078 105.404 52.1498 105.404 48.0078C105.404 43.8658 102.046 40.5078 97.904 40.5078H63.343C28.416 40.5078 0 68.9868 0 103.994V329.72C0 364.726 28.416 393.206 63.343 393.206H94.656L81.345 444.838C79.111 453.504 82.39 462.431 89.699 467.581C93.398 470.187 97.66 471.493 101.927 471.492C106.065 471.492 110.208 470.263 113.841 467.802L223.95 393.206H241.021C245.163 393.206 248.521 389.848 248.521 385.706C248.521 381.564 245.164 378.206 241.021 378.206V378.206Z" fill="#333333"/>
<path d="M448.657 40.5078H128.469C124.327 40.5078 120.969 43.8658 120.969 48.0078C120.969 52.1498 124.327 55.5078 128.469 55.5078H448.657C475.313 55.5078 497 77.2578 497 103.994V329.72C497 356.455 475.313 378.206 448.657 378.206H272.786C268.644 378.206 265.286 381.564 265.286 385.706C265.286 389.848 268.644 393.206 272.786 393.206H448.658C483.585 393.206 512.001 364.727 512.001 329.72V103.994C512 68.9868 483.584 40.5078 448.657 40.5078V40.5078Z" fill="#333333"/>
</g>
<defs>
<clipPath id="clip0_1670_16">
<rect width="512" height="512" fill="white"/>
</clipPath>
</defs>
</svg>
