<svg width="512" height="512" viewBox="0 0 512 512" fill="none" xmlns="http://www.w3.org/2000/svg">
<g clip-path="url(#clip0_1670_14)">
<path d="M402.286 292.571C365.993 292.571 334.011 310.487 314.029 337.716L214.181 287.781C217.272 277.653 219.429 267.124 219.429 255.999C219.429 244.875 217.272 234.344 214.181 224.218L314.029 174.282C334.011 201.512 365.993 219.428 402.286 219.428C462.785 219.428 512 170.213 512 109.713C512 49.2136 462.786 0 402.286 0C341.785 0 292.571 49.2147 292.571 109.714C292.571 120.839 294.73 131.368 297.821 141.494L197.97 191.431C177.988 164.202 146.006 146.286 109.713 146.286C49.2136 146.286 0 195.5 0 256.001C0 316.501 49.2136 365.715 109.714 365.715C146.007 365.715 177.989 347.8 197.971 320.57L297.819 370.507C294.728 380.632 292.571 391.161 292.571 402.287C292.571 462.786 341.785 512.001 402.286 512.001C462.786 512.001 512 462.786 512 402.287C512 341.787 462.785 292.571 402.286 292.571V292.571ZM402.286 36.5718C442.625 36.5718 475.428 69.3936 475.428 109.714C475.428 150.036 442.624 182.857 402.286 182.857C361.946 182.857 329.143 150.035 329.143 109.714C329.143 69.3936 361.947 36.5718 402.286 36.5718ZM109.714 329.143C69.3745 329.143 36.5718 296.321 36.5718 256.001C36.5718 215.679 69.3756 182.858 109.714 182.858C150.054 182.858 182.857 215.68 182.857 256.001C182.857 296.321 150.054 329.143 109.714 329.143V329.143ZM402.286 475.428C361.946 475.428 329.143 442.606 329.143 402.286C329.143 361.965 361.947 329.143 402.286 329.143C442.625 329.143 475.428 361.965 475.428 402.286C475.428 442.607 442.625 475.428 402.286 475.428Z" fill="#333333"/>
</g>
<defs>
<clipPath id="clip0_1670_14">
<rect width="512" height="512" fill="white"/>
</clipPath>
</defs>
</svg>
