<svg width="24" height="24" viewBox="0 0 24 24" fill="none" xmlns="http://www.w3.org/2000/svg">
<path d="M12 2C10.0222 2 8.08879 2.58649 6.4443 3.6853C4.79981 4.78412 3.51809 6.3459 2.76121 8.17317C2.00433 10.0004 1.8063 12.0111 2.19215 13.9509C2.578 15.8907 3.53041 17.6725 4.92894 19.0711C6.32746 20.4696 8.10929 21.422 10.0491 21.8079C11.9889 22.1937 13.9996 21.9957 15.8268 21.2388C17.6541 20.4819 19.2159 19.2002 20.3147 17.5557C21.4135 15.9112 22 13.9778 22 12C22 10.6868 21.7413 9.38642 21.2388 8.17317C20.7363 6.95991 19.9997 5.85752 19.0711 4.92893C18.1425 4.00035 17.0401 3.26375 15.8268 2.7612C14.6136 2.25866 13.3132 2 12 2ZM12 20C10.4178 20 8.87104 19.5308 7.55544 18.6518C6.23985 17.7727 5.21447 16.5233 4.60897 15.0615C4.00347 13.5997 3.84504 11.9911 4.15372 10.4393C4.4624 8.88743 5.22433 7.46197 6.34315 6.34315C7.46197 5.22433 8.88743 4.4624 10.4393 4.15372C11.9911 3.84504 13.5997 4.00346 15.0615 4.60896C16.5233 5.21447 17.7727 6.23984 18.6518 7.55544C19.5308 8.87103 20 10.4177 20 12C20 14.1217 19.1572 16.1566 17.6569 17.6569C16.1566 19.1571 14.1217 20 12 20ZM13 11.2C11.83 10.96 10.94 10.87 10.94 10.33C10.94 9.79 11.41 9.76 12.11 9.76C12.3011 9.76525 12.4889 9.81071 12.6612 9.89342C12.8335 9.97612 12.9864 10.0942 13.11 10.24C13.1588 10.2956 13.2188 10.3403 13.286 10.3713C13.3531 10.4023 13.426 10.4189 13.5 10.42H15C15.0315 10.4187 15.0625 10.4112 15.0911 10.398C15.1198 10.3847 15.1455 10.3659 15.1668 10.3427C15.1882 10.3195 15.2048 10.2923 15.2156 10.2626C15.2265 10.233 15.2313 10.2015 15.23 10.17C15.23 9.39 14.23 8.45 13 8.17V7.3C13.0014 7.26023 12.9946 7.22059 12.98 7.18356C12.9654 7.14653 12.9434 7.1129 12.9152 7.08476C12.8871 7.05662 12.8535 7.03457 12.8164 7.01999C12.7794 7.00541 12.7398 6.9986 12.7 7H11.3C11.2611 6.99998 11.2225 7.0078 11.1867 7.02299C11.1508 7.03819 11.1184 7.06045 11.0913 7.08844C11.0643 7.11644 11.0431 7.1496 11.0291 7.18595C11.0152 7.2223 11.0087 7.26108 11.01 7.3V8.12C10.4443 8.19869 9.92094 8.46358 9.52255 8.87284C9.12416 9.28209 8.87345 9.81239 8.81 10.38C8.81 13.51 13.33 12.45 13.33 13.6C13.33 14.13 12.81 14.19 11.92 14.19C11.696 14.1897 11.475 14.1381 11.274 14.0393C11.073 13.9405 10.8971 13.7971 10.76 13.62C10.7033 13.5603 10.6351 13.5126 10.5594 13.48C10.4838 13.4473 10.4024 13.4303 10.32 13.43H8.92C8.85988 13.435 8.80386 13.4625 8.76309 13.507C8.72232 13.5515 8.69979 13.6097 8.7 13.67C8.7 14.78 9.82 15.57 11.01 15.88V16.7C11.0087 16.7389 11.0152 16.7777 11.0291 16.8141C11.0431 16.8504 11.0643 16.8836 11.0913 16.9116C11.1184 16.9396 11.1508 16.9618 11.1867 16.977C11.2225 16.9922 11.2611 17 11.3 17H12.69C12.7289 17 12.7675 16.9922 12.8033 16.977C12.8392 16.9618 12.8716 16.9396 12.8987 16.9116C12.9257 16.8836 12.9469 16.8504 12.9609 16.8141C12.9748 16.7777 12.9813 16.7389 12.98 16.7V15.92C14.26 15.69 15.3 14.92 15.3 13.59C15.3 12.26 14.38 11.5 13 11.2Z" fill="#333333"/>
</svg>
