<?xml version="1.0"?>
<svg xmlns="http://www.w3.org/2000/svg" xmlns:xlink="http://www.w3.org/1999/xlink" xmlns:svgjs="http://svgjs.com/svgjs" version="1.1" width="512" height="512" x="0" y="0" viewBox="0 0 512 512" style="enable-background:new 0 0 512 512" xml:space="preserve"><g><g xmlns="http://www.w3.org/2000/svg" id="_x32_4h"><g><path d="m360.542 445.537c-31.914 17.312-68.064 26.463-104.542 26.463-121.122 0-216-94.878-216-216s94.878-216 216-216c58.665 0 113.885 22.911 155.487 64.513 5.717 5.717 14.312 7.43 21.783 4.341s12.348-10.372 12.359-18.456l.077-56.646c.015-11.045-8.927-20.012-19.973-20.027-.009 0-.018 0-.027 0-11.033 0-19.984 8.937-20 19.973l-.019 13.749c-43.536-30.834-95.355-47.447-149.687-47.447-143.551 0-256 112.449-256 256s112.449 256 256 256c43.119 0 85.864-10.825 123.615-31.303 9.709-5.267 13.31-17.408 8.043-27.117s-17.408-13.311-27.116-8.043z" fill="#E175F9" data-original="#000000"/><ellipse cx="477.526" cy="173.915" rx="20" ry="20" transform="matrix(.863 -.506 .506 .863 -22.369 265.471)" fill="#E175F9" data-original="#000000"/><path d="m484.367 319.291c-10.38-3.778-21.856 1.574-25.634 11.953-3.778 10.38 1.574 21.856 11.953 25.634 10.38 3.778 21.856-1.574 25.634-11.953 3.778-10.38-1.574-21.856-11.953-25.634z" fill="#E175F9" data-original="#000000"/><path d="m448.706 394.948c-8.462-7.1-21.077-5.996-28.177 2.465s-5.996 21.077 2.465 28.177c8.462 7.1 21.077 5.996 28.177-2.465 7.101-8.462 5.997-21.077-2.465-28.177z" fill="#E175F9" data-original="#000000"/><circle cx="492" cy="256" r="20" fill="#E175F9" data-original="#000000"/><path d="m256 156c11.046 0 20-8.954 20-20v-40c0-11.046-8.954-20-20-20-99.252 0-180 80.748-180 180s80.748 180 180 180 180-80.748 180-180c0-32.156-8.588-63.723-24.836-91.288-15.76-26.736-38.288-49.082-65.149-64.62-9.562-5.53-21.795-2.264-27.327 7.297-5.531 9.561-2.264 21.796 7.297 27.327 37.341 21.601 62.436 59.272 68.55 101.283h-18.535c-11.046 0-20 8.954-20 20s8.954 20 20 20h18.565c-8.796 61.222-57.344 109.77-118.565 118.566v-18.565c0-11.046-8.954-20-20-20s-20 8.954-20 20v18.565c-61.221-8.796-109.769-57.344-118.565-118.565h18.565c11.046 0 20-8.954 20-20s-8.954-20-20-20h-18.565c8.796-61.221 57.344-109.769 118.565-118.565v18.565c0 11.046 8.954 20 20 20z" fill="#E175F9" data-original="#000000"/></g><g><path d="m296 276h-40c-11.046 0-20-8.954-20-20v-40c0-11.046 8.954-20 20-20s20 8.954 20 20v20h20c11.046 0 20 8.954 20 20s-8.954 20-20 20z" fill="#E175F9" data-original="#000000"/></g></g></g></svg>
