<?xml version="1.0"?>
<svg xmlns="http://www.w3.org/2000/svg" xmlns:xlink="http://www.w3.org/1999/xlink" xmlns:svgjs="http://svgjs.com/svgjs" version="1.1" width="512" height="512" x="0" y="0" viewBox="0 0 512 512" style="enable-background:new 0 0 512 512" xml:space="preserve" class=""><g><path xmlns="http://www.w3.org/2000/svg" d="m485.5 336.44-80.719-46.6a52.988 52.988 0 0 0 -72.3 19.372c-4.2 7.277-11.571 16.436-22.821 18.736a32.8 32.8 0 0 1 -27.631-6.208c-30.378-22.8-68.97-61.388-91.764-91.763a32.793 32.793 0 0 1 -6.209-27.631c2.3-11.252 11.459-18.622 18.736-22.823a52.99 52.99 0 0 0 19.373-72.3l-46.605-80.723a52.612 52.612 0 0 0 -65.179-22.8l-1 .39c-38.481 15.11-66.626 26.704-78.205 38.284-30.227 30.226-38.666 74.338-24.404 127.566 16.77 62.588 64.735 136.831 131.6 203.692s141.1 114.825 203.692 131.6a184.507 184.507 0 0 0 47.6 6.749c32.132 0 59.3-10.483 79.968-31.153 11.576-11.586 23.168-39.728 38.283-78.228l.385-.981a52.611 52.611 0 0 0 -22.8-65.179zm-14.433 50.56-.385.982c-7.337 18.687-22.6 57.571-29.34 64.559-19.823 19.823-49.745 24.549-88.929 14.051-117.669-31.529-275.475-189.335-307-307-10.5-39.186-5.772-69.106 14.04-88.919 7-6.747 45.872-22.009 64.555-29.344l1-.391a13.314 13.314 0 0 1 4.878-.941 12.682 12.682 0 0 1 11.041 6.51l46.6 80.719a12.991 12.991 0 0 1 -4.731 17.658c-20.336 11.741-33.805 29.3-37.926 49.45a72.624 72.624 0 0 0 13.4 59.653c25.177 33.551 66.2 74.57 99.749 99.748a72.627 72.627 0 0 0 59.654 13.4c20.148-4.122 37.709-17.591 49.449-37.926a12.941 12.941 0 0 1 17.658-4.731l80.719 46.6a12.7 12.7 0 0 1 5.568 15.922zm-184.612-154.581h128.106c16.544 0 30.243-12.935 32.263-29.606l37.6 15.382a20 20 0 0 0 27.576-18.511v-115.455a20 20 0 0 0 -27.572-18.511l-37.604 15.382c-2.02-16.67-15.719-29.606-32.263-29.606h-128.106c-17.932 0-32.52 15.194-32.52 33.87v113.185c0 18.676 14.588 33.87 32.52 33.87zm185.545-62.519-24.919-10.2v-35.489l24.919-10.193zm-178.065-78.4h113.145v100.919h-113.145z" fill="#E175F9" data-original="#000000" class=""/></g></svg>
