<?xml version="1.0"?>
<svg xmlns="http://www.w3.org/2000/svg" xmlns:xlink="http://www.w3.org/1999/xlink" xmlns:svgjs="http://svgjs.com/svgjs" version="1.1" width="512" height="512" x="0" y="0" viewBox="0 0 511.924 511.924" style="enable-background:new 0 0 512 512" xml:space="preserve" class=""><g><g xmlns="http://www.w3.org/2000/svg"><path d="m377 210.962c24.813 0 45-20.187 45-45s-20.187-45-45-45-45 20.187-45 45 20.187 45 45 45zm0-60c8.271 0 15 6.729 15 15s-6.729 15-15 15-15-6.729-15-15 6.729-15 15-15z" fill="#E175F9" data-original="#000000" class=""/><path d="m267.124 177.437-6.106 3.525h-186.018c-24.813 0-45 20.187-45 45v165h-15c-8.284 0-15 6.716-15 15 0 41.355 33.645 75 75 75h302c41.355 0 75-33.645 75-75 0-8.284-6.716-15-15-15h-15v-122.438c0-11.466 13.626-17.331 23.127-11.845l14.295 8.254c7.17 4.14 16.35 1.684 20.491-5.49l30-51.962c4.139-7.169 1.684-16.349-5.49-20.49l-15.72-9.076c-9.069-5.234-8.743-18.859.434-24.157l15.286-8.825c3.445-1.989 5.959-5.266 6.989-9.108s.491-7.937-1.499-11.382l-30-51.962c-1.989-3.445-5.265-5.959-9.108-6.989s-7.937-.491-11.382 1.499l-14.202 8.201c-9.539 5.506-23.221-.282-23.221-11.69v-17.54c0-8.284-6.716-15-15-15h-60c-8.284 0-15 6.716-15 15v17.076c0 10.87-12.236 17.919-21.619 12.501l-14.804-8.548c-3.446-1.989-7.541-2.529-11.382-1.499-3.843 1.029-7.12 3.543-9.108 6.989l-30 51.962c-1.989 3.445-2.528 7.54-1.499 11.382s3.543 7.119 6.989 9.108l14.432 8.333c9.092 5.249 11.076 18.999 2.115 24.171zm109.876 273.525h-302c-19.556 0-36.239-12.539-42.43-30.01h386.86c-6.191 17.471-22.874 30.01-42.43 30.01zm-83.433-350.49 1.813 1.047c29.36 16.954 66.62-4.572 66.62-38.481v-2.076h30v2.54c0 34.156 38.262 54.968 68.221 37.67l1.212-.7 15 25.98-2.295 1.325c-29.054 16.774-29.604 59.277-.434 76.119l2.729 1.576-15 25.98-1.305-.753c-29.779-17.194-67.939 3.431-68.121 37.6 0 .05-.007.097-.007.147v2.516h-30v-3.014c0-33.267-37.796-54.186-65.818-38.006l-2.615 1.51-15-25.98 3.557-2.054c29.384-16.964 26.672-59.515-2.116-76.133l-1.441-.832zm-18.481 158.971c1.989 3.445 5.266 5.959 9.108 6.989 3.84 1.029 7.937.491 11.382-1.499l15.605-9.011c8.435-4.868 20.818 2.331 20.818 12.025v18.014c0 8.284 6.716 15 15 15h45v90h-331.999v-165c0-8.271 6.729-15 15-15h172.096z" fill="#E175F9" data-original="#000000" class=""/></g></g></svg>
