<?xml version="1.0"?>
<svg xmlns="http://www.w3.org/2000/svg" xmlns:xlink="http://www.w3.org/1999/xlink" xmlns:svgjs="http://svgjs.com/svgjs" version="1.1" width="512" height="512" x="0" y="0" viewBox="0 0 32 32" style="enable-background:new 0 0 512 512" xml:space="preserve" class=""><g><path xmlns="http://www.w3.org/2000/svg" d="M25.47,5.53a1.06,1.06,0,0,1-.69-.25,12.49,12.49,0,0,0-2.25-1.5,1.07,1.07,0,0,1,1-1.89,14.62,14.62,0,0,1,2.64,1.76,1.07,1.07,0,0,1-.69,1.88Z" fill="#E175F9" data-original="#000000" class=""/><path xmlns="http://www.w3.org/2000/svg" d="M16,32A16,16,0,1,1,20.1.53a1.07,1.07,0,0,1-.55,2.06A13.87,13.87,0,1,0,29.87,16,1.07,1.07,0,1,1,32,16,16,16,0,0,1,16,32Z" fill="#E175F9" data-original="#000000" class=""/><path xmlns="http://www.w3.org/2000/svg" d="M30.5,13.47a1.07,1.07,0,0,1-1-.81q-.16-.65-.38-1.27a1.07,1.07,0,1,1,2-.71c.17.48.32,1,.44,1.47a1.07,1.07,0,0,1-.78,1.29A1,1,0,0,1,30.5,13.47Z" fill="#E175F9" data-original="#000000" class=""/><path xmlns="http://www.w3.org/2000/svg" d="M28.7,9.21a1.07,1.07,0,0,1-.91-.5,14.13,14.13,0,0,0-1-1.42,1.07,1.07,0,1,1,1.66-1.34,16.06,16.06,0,0,1,1.16,1.64,1.07,1.07,0,0,1-.91,1.63Z" fill="#E175F9" data-original="#000000" class=""/><path xmlns="http://www.w3.org/2000/svg" d="M16,27.73a11.66,11.66,0,0,1-6.35-1.87,1.07,1.07,0,0,1,1.16-1.79A9.6,9.6,0,0,0,24.08,10.81a9.78,9.78,0,0,0-2.89-2.88A9.6,9.6,0,0,0,7.93,21.19a1.07,1.07,0,1,1-1.79,1.16A11.73,11.73,0,0,1,22.35,6.13a11.92,11.92,0,0,1,3.52,3.51A11.73,11.73,0,0,1,16,27.73Z" fill="#E175F9" data-original="#000000" class=""/><path xmlns="http://www.w3.org/2000/svg" d="M19.2,14.93H17.07V12.8a1.07,1.07,0,0,0-2.13,0v2.13H12.8a1.07,1.07,0,0,0,0,2.13h2.13V19.2a1.07,1.07,0,0,0,2.13,0V17.06H19.2a1.07,1.07,0,0,0,0-2.13Z" fill="#E175F9" data-original="#000000" class=""/></g></svg>
