<svg width="20" height="12" viewBox="0 0 20 12" fill="none" xmlns="http://www.w3.org/2000/svg">
<path d="M11.3129 0H2.18818C0.984683 0 0 0.984683 0 2.18818V9.56236C0 10.7659 0.984683 11.7505 2.18818 11.7505H11.3129C12.5164 11.7505 13.5011 10.7659 13.5011 9.56236V2.18818C13.5011 0.962801 12.5164 0 11.3129 0Z" fill="#00C75E"/>
<path d="M18.3813 1.20321C18.25 1.2251 18.1187 1.29074 18.0093 1.35639L14.5957 3.32575V8.40234L18.0312 10.3717C18.6657 10.7437 19.4535 10.5249 19.8255 9.89031C19.9349 9.69337 20.0005 9.47455 20.0005 9.23385V2.47236C20.0005 1.66273 19.2347 1.00628 18.3813 1.20321Z" fill="#00C75E"/>
</svg>
