<?xml version="1.0"?>
<svg xmlns="http://www.w3.org/2000/svg" xmlns:xlink="http://www.w3.org/1999/xlink" xmlns:svgjs="http://svgjs.com/svgjs" version="1.1" width="512" height="512" x="0" y="0" viewBox="0 0 24 24" style="enable-background:new 0 0 512 512" xml:space="preserve" class=""><g><path xmlns="http://www.w3.org/2000/svg" d="m7 10h-2a1 1 0 0 1 0-2h2a1 1 0 0 1 0 2z" fill="#E175F9" data-original="#000000" class=""/><path xmlns="http://www.w3.org/2000/svg" d="m22.07 5.869a1.763 1.763 0 0 0 -1.807.087l-3.263 2.175v-1.112a2.522 2.522 0 0 0 -2.519-2.519h-10.962a2.522 2.522 0 0 0 -2.519 2.519v9.962a2.522 2.522 0 0 0 2.519 2.519h10.962a2.522 2.522 0 0 0 2.519-2.519v-1.112l3.263 2.175a1.761 1.761 0 0 0 2.737-1.465v-9.158a1.762 1.762 0 0 0 -.93-1.552zm-7.07 11.112a.519.519 0 0 1 -.519.519h-10.962a.519.519 0 0 1 -.519-.519v-9.962a.519.519 0 0 1 .519-.519h10.962a.519.519 0 0 1 .519.519zm6-.849-4-2.667v-2.93l4-2.667z" fill="#E175F9" data-original="#000000" class=""/></g></svg>
