<?xml version="1.0"?>
<svg xmlns="http://www.w3.org/2000/svg" xmlns:xlink="http://www.w3.org/1999/xlink" xmlns:svgjs="http://svgjs.com/svgjs" version="1.1" width="512" height="512" x="0" y="0" viewBox="0 0 48 48" style="enable-background:new 0 0 512 512" xml:space="preserve"><g><path xmlns="http://www.w3.org/2000/svg" d="m21.432 30.944c0 1.022 1.176 1.887 2.568 1.887 2.518 0 4.566 1.743 4.566 3.887 0 1.85-1.529 3.396-3.566 3.785v1.179c0 .553-.447 1-1 1s-1-.447-1-1v-1.179c-2.038-.39-3.568-1.936-3.568-3.785 0-.553.448-1 1-1s1 .447 1 1c0 1.022 1.176 1.886 2.568 1.886 1.391 0 2.566-.863 2.566-1.886s-1.174-1.887-2.566-1.887c-2.519 0-4.568-1.743-4.568-3.887 0-1.85 1.53-3.396 3.568-3.785v-1.034c0-.553.448-1 1-1s1 .447 1 1v1.034c2.037.39 3.566 1.936 3.566 3.785 0 .553-.447 1-1 1s-1-.447-1-1c0-.978-1.077-1.801-2.387-1.872-.06.012-.115.036-.179.036s-.119-.024-.179-.036c-1.311.072-2.389.895-2.389 1.872zm20.163 7.273c.047 5.079-3.805 9.653-8.243 9.787-.01 0-.021 0-.03 0h-18.782c-5.558 0-8.113-5.066-8.135-9.773-.044-9.367 7.39-20.701 12.921-24.416-2.923-2.447-6.385-7.363-6.339-9.846.044-.93.199-1.901 1.021-2.278.875-.401 1.673.224 2.376.773.462.361 1.155.903 1.514.827.206-.046.475-.366.72-.854.027-.054.059-.104.095-.152 1.257-1.673 2.229-2.36 3.228-2.282 1.214.089 1.842 1.243 2.45 2.359.394.724.801 1.472 1.352 2.022.057.056.103.096.138.123.16-.134.417-.447.597-.667.982-1.196 2.81-3.424 6.663-1.884.38.151.629.52.629.929 0 2.275-1.361 5.471-3.04 8.054 1.773-.56 3.677-.939 4.928-.939 3.28 0 3.635 1.966 3.635 2.812 0 1.292-.646 3.46-4.973 3.46-1.033 0-2.149-.126-3.204-.307 4.998 4.91 10.405 14.28 10.479 22.252zm-5.937-26.217c-1.962 0-4.601.851-6.232 1.56 1.348.345 3.239.712 4.895.712 2.973 0 2.973-1.099 2.973-1.46-.001-.264-.001-.812-1.636-.812zm-14.122.968c.024.015.037.039.059.056.02.01.042.007.061.018 1.38.771 2.761.742 4.651-.05.031-.014.066-.01.1-.02 2.058-1.583 4.898-6.364 5.313-9.39-1.993-.55-2.822.462-3.694 1.526-.562.685-1.143 1.392-2.051 1.437-.58.043-1.12-.223-1.645-.746-.756-.756-1.255-1.672-1.695-2.481-.265-.486-.665-1.222-.877-1.329.014.016-.401.123-1.394 1.43-.535 1.028-1.216 1.642-2.025 1.824-1.278.287-2.379-.573-3.185-1.202-.049-.039-.104-.081-.16-.125-.003.038-.005.078-.007.12-.033 1.759 3.684 7.145 6.549 8.932zm18.059 25.267c-.067-7.393-5.266-16.066-9.686-20.588.618 1.084 1.423 2.243 2.461 3.279.392.391.392 1.023.002 1.414-.195.196-.452.294-.708.294s-.512-.098-.706-.292c-1.694-1.691-2.84-3.637-3.573-5.207-.383.985-.922 2.068-1.67 3.021-.342.437-.97.512-1.404.169-.434-.341-.51-.97-.169-1.403.91-1.159 1.457-2.601 1.767-3.665-1.764.524-3.287.448-4.747-.225-4.58 2.488-12.801 13.892-12.757 23.189.018 3.749 1.945 7.783 6.135 7.783h18.766c3.64-.12 6.322-4.196 6.289-7.769z" fill="#6661e7" data-original="#000000"/></g></svg>
