<?xml version="1.0"?>
<svg xmlns="http://www.w3.org/2000/svg" xmlns:xlink="http://www.w3.org/1999/xlink" xmlns:svgjs="http://svgjs.com/svgjs" version="1.1" width="512" height="512" x="0" y="0" viewBox="0 0 32 32" style="enable-background:new 0 0 512 512" xml:space="preserve"><g><g xmlns="http://www.w3.org/2000/svg"><path d="m28.989 3.776c-.127-.563-.742-.935-1.302-.739 0 0-24.03 8.481-24.045 8.488-.396.167-.678.546-.655.988.019.351.247.708.569.858l10.276 4.797s4.782 10.246 4.813 10.301c.428.772 1.5.667 1.833-.115 0 0 8.484-24.038 8.485-24.042.06-.169.066-.358.026-.536zm-9.584 21.605-3.619-7.753 3.041-3.041c.391-.391.391-1.023 0-1.414s-1.023-.391-1.414 0l-3.041 3.041-7.754-3.62 19.762-6.975z" fill="#6661e7" data-original="#000000"/></g></g></svg>
