<svg width="57" height="200" viewBox="0 0 57 200" fill="none" xmlns="http://www.w3.org/2000/svg">
<path d="M28.5 71.25C22.8632 71.25 17.3531 72.9215 12.6663 76.0531C7.97946 79.1847 4.32654 83.6358 2.16944 88.8435C0.0123485 94.0512 -0.552046 99.7816 0.547632 105.31C1.64731 110.839 4.36167 115.917 8.34747 119.903C12.3333 123.888 17.4115 126.603 22.9399 127.702C28.4684 128.802 34.1988 128.238 39.4065 126.081C44.6142 123.923 49.0653 120.271 52.1969 115.584C55.3285 110.897 57 105.387 57 99.75C56.9915 92.1939 53.9861 84.9498 48.6432 79.6068C43.3002 74.2639 36.0561 71.2585 28.5 71.25V71.25ZM28.5 114C25.6816 114 22.9265 113.164 20.5831 111.598C18.2397 110.033 16.4133 107.807 15.3347 105.203C14.2562 102.599 13.974 99.7342 14.5238 96.9699C15.0737 94.2057 16.4308 91.6666 18.4237 89.6737C20.4166 87.6808 22.9557 86.3236 25.72 85.7738C28.4842 85.224 31.3494 85.5062 33.9532 86.5847C36.5571 87.6633 38.7826 89.4897 40.3484 91.8331C41.9142 94.1765 42.75 96.9316 42.75 99.75C42.7462 103.528 41.2437 107.151 38.5721 109.822C35.9005 112.494 32.2782 113.996 28.5 114V114Z" fill="#333333"/>
<path d="M28.5 57C34.1367 57 39.6469 55.3285 44.3337 52.1969C49.0205 49.0652 52.6734 44.6142 54.8305 39.4065C56.9876 34.1988 57.552 28.4684 56.4524 22.9399C55.3527 17.4115 52.6383 12.3333 48.6525 8.34746C44.6667 4.36167 39.5885 1.64731 34.0601 0.547632C28.5316 -0.552046 22.8012 0.0123485 17.5935 2.16944C12.3858 4.32654 7.93473 7.97945 4.80312 12.6663C1.6715 17.3531 0 22.8632 0 28.5C0.00792158 36.0562 3.01314 43.3007 8.3562 48.6438C13.6993 53.9868 20.9438 56.9921 28.5 57V57ZM28.5 14.25C31.3184 14.25 34.0735 15.0858 36.4169 16.6516C38.7603 18.2174 40.5867 20.4429 41.6653 23.0468C42.7438 25.6506 43.026 28.5158 42.4762 31.28C41.9263 34.0443 40.5691 36.5834 38.5762 38.5763C36.5834 40.5692 34.0442 41.9263 31.28 42.4762C28.5158 43.026 25.6506 42.7438 23.0468 41.6653C20.4429 40.5867 18.2174 38.7603 16.6516 36.4169C15.0857 34.0735 14.25 31.3184 14.25 28.5C14.2543 24.722 15.7571 21.1 18.4285 18.4285C21.1 15.7571 24.722 14.2543 28.5 14.25V14.25Z" fill="#333333"/>
<path d="M28.5 142.5C22.8632 142.5 17.3531 144.171 12.6663 147.303C7.97946 150.435 4.32654 154.886 2.16944 160.094C0.0123485 165.301 -0.552046 171.032 0.547632 176.56C1.64731 182.089 4.36167 187.167 8.34747 191.153C12.3333 195.138 17.4115 197.853 22.9399 198.952C28.4684 200.052 34.1988 199.488 39.4065 197.331C44.6142 195.173 49.0653 191.521 52.1969 186.834C55.3285 182.147 57 176.637 57 171C56.9915 163.444 53.9861 156.2 48.6432 150.857C43.3002 145.514 36.0561 142.508 28.5 142.5ZM28.5 185.25C25.6816 185.25 22.9265 184.414 20.5831 182.848C18.2397 181.283 16.4133 179.057 15.3347 176.453C14.2562 173.849 13.974 170.984 14.5238 168.22C15.0737 165.456 16.4308 162.917 18.4237 160.924C20.4166 158.931 22.9557 157.574 25.72 157.024C28.4842 156.474 31.3494 156.756 33.9532 157.835C36.5571 158.913 38.7826 160.74 40.3484 163.083C41.9142 165.427 42.75 168.182 42.75 171C42.7462 174.778 41.2437 178.401 38.5721 181.072C35.9005 183.744 32.2782 185.246 28.5 185.25V185.25Z" fill="#333333"/>
</svg>
