<svg width="24" height="24" viewBox="0 0 24 24" fill="none" xmlns="http://www.w3.org/2000/svg">
<path d="M22.3683 17.8856C21.7436 17.2609 19.7742 15.8067 17.8189 14.6809C17.7977 14.7126 17.7765 14.7444 17.7553 14.7797C19.9612 11.2256 19.5271 6.49262 16.4388 3.40438C12.8388 -0.192086 7.00473 -0.192086 3.40473 3.40438C-0.195269 7.00791 -0.191739 12.8385 3.40473 16.4385C6.46473 19.495 11.1341 19.9574 14.6777 17.8185C15.6977 19.5903 17.1836 21.6691 17.8859 22.3715C19.1212 23.6068 21.133 23.6032 22.3683 22.3679C23.6036 21.1291 23.6036 19.1244 22.3683 17.8856V17.8856ZM14.0106 14.0103C11.7518 16.2656 8.09535 16.2656 5.83653 14.0067C3.58124 11.7514 3.57771 8.09497 5.83653 5.83615C8.09183 3.58085 11.7518 3.58085 14.0071 5.83615C16.2659 8.09497 16.2659 11.755 14.0106 14.0103V14.0103Z" fill="#E175F9"/>
</svg>
