<svg width="24" height="22" viewBox="0 0 24 22" fill="none" xmlns="http://www.w3.org/2000/svg">
<path d="M14.1895 17.4453H1.10882C0.819715 17.4453 0.542449 17.56 0.338031 17.7645C0.133602 17.9689 0.0187535 18.2462 0.0187535 18.5353C0.0187535 18.8244 0.133602 19.1016 0.338031 19.3061C0.542449 19.5105 0.819715 19.6254 1.10882 19.6254H14.1895C14.4786 19.6254 14.7559 19.5105 14.9603 19.3061C15.1647 19.1016 15.2796 18.8244 15.2796 18.5353C15.2796 18.2462 15.1647 17.9689 14.9603 17.7645C14.7559 17.56 14.4786 17.4453 14.1895 17.4453ZM1.10882 7.63473H20.7298C20.9702 7.634 21.2037 7.5538 21.3938 7.40662C21.5839 7.25944 21.72 7.05354 21.781 6.82098C21.8419 6.5884 21.8242 6.34222 21.7307 6.12072C21.6372 5.89923 21.4731 5.71486 21.264 5.59632L11.4535 0.146046C11.2878 0.0503714 11.0997 0 10.9084 0C10.717 0 10.5291 0.0503714 10.3634 0.146046L0.552881 5.59632C0.342009 5.71574 0.176953 5.90203 0.0837753 6.12574C-0.0093918 6.34946 -0.0253502 6.59785 0.0384071 6.83164C0.102175 7.06545 0.242029 7.27134 0.435874 7.41677C0.62973 7.56221 0.866512 7.63889 1.10882 7.63473ZM10.9193 2.33706L16.5222 5.45462H5.31643L10.9193 2.33706ZM9.82928 9.81487V15.2651C9.82928 15.5542 9.94406 15.8314 10.1486 16.0359C10.3529 16.2403 10.6302 16.3552 10.9193 16.3552C11.2084 16.3552 11.4857 16.2403 11.6901 16.0359C11.8945 15.8314 12.0094 15.5542 12.0094 15.2651V9.81487C12.0094 9.52579 11.8945 9.24848 11.6901 9.04409C11.4857 8.8396 11.2084 8.72482 10.9193 8.72482C10.6302 8.72482 10.3529 8.8396 10.1486 9.04409C9.94406 9.24848 9.82928 9.52579 9.82928 9.81487ZM3.28893 9.81487V15.2651C3.28893 15.5542 3.40377 15.8314 3.6082 16.0359C3.81262 16.2403 4.08988 16.3552 4.37899 16.3552C4.66808 16.3552 4.94535 16.2403 5.14977 16.0359C5.35419 15.8314 5.46904 15.5542 5.46904 15.2651V9.81487C5.46904 9.52579 5.35419 9.24848 5.14977 9.04409C4.94535 8.8396 4.66808 8.72482 4.37899 8.72482C4.08988 8.72482 3.81262 8.8396 3.6082 9.04409C3.40377 9.24848 3.28893 9.52579 3.28893 9.81487ZM18.5497 14.1751V9.81487C18.5497 9.52579 18.4348 9.24848 18.2304 9.04409C18.0261 8.8396 17.7487 8.72482 17.4597 8.72482C17.1706 8.72482 16.8933 8.8396 16.6889 9.04409C16.4844 9.24848 16.3696 9.52579 16.3696 9.81487V14.1751C16.3696 14.4642 16.4844 14.7414 16.6889 14.9459C16.8933 15.1503 17.1706 15.2651 17.4597 15.2651C17.7487 15.2651 18.0261 15.1503 18.2304 14.9459C18.4348 14.7414 18.5497 14.4642 18.5497 14.1751ZM23.128 17.4453H21.8199V16.1372C21.8199 15.9059 21.728 15.6841 21.5645 15.5205C21.4009 15.357 21.1792 15.2651 20.9478 15.2651H20.5118C20.2805 15.2651 20.0587 15.357 19.8952 15.5205C19.7317 15.6841 19.6398 15.9059 19.6398 16.1372V17.4453H18.3317C18.1004 17.4453 17.8786 17.5372 17.7151 17.7007C17.5516 17.8642 17.4597 18.086 17.4597 18.3173V18.7533C17.4597 18.9845 17.5516 19.2064 17.7151 19.37C17.8786 19.5335 18.1004 19.6254 18.3317 19.6254H19.6398V20.9334C19.6398 21.1646 19.7317 21.3865 19.8952 21.5501C20.0587 21.7136 20.2805 21.8055 20.5118 21.8055H20.9478C21.1792 21.8055 21.4009 21.7136 21.5645 21.5501C21.728 21.3865 21.8199 21.1646 21.8199 20.9334V19.6254H23.128C23.3593 19.6254 23.581 19.5335 23.7446 19.37C23.9081 19.2064 24 18.9845 24 18.7533V18.3173C24 18.086 23.9081 17.8642 23.7446 17.7007C23.581 17.5372 23.3593 17.4453 23.128 17.4453Z" fill="#333333"/>
</svg>
