<svg width="24" height="24" viewBox="0 0 24 24" fill="none" xmlns="http://www.w3.org/2000/svg">
<path d="M21.8793 17.8552C21.784 17.3462 21.2941 17.011 20.7852 17.1064C20.2763 17.2018 19.941 17.6916 20.0363 18.2005C20.1071 18.5781 19.9411 18.8471 19.8359 18.9739C19.731 19.1003 19.4977 19.3125 19.115 19.3125H4.88412C4.50139 19.3125 4.26814 19.1004 4.16319 18.9739C4.058 18.8471 3.89202 18.5781 3.9628 18.2005C4.22872 16.7815 4.7623 15.8482 5.2783 14.9455C5.90497 13.8494 6.55297 12.7159 6.55297 10.9687V9.56245C6.55297 6.60619 8.95592 4.16845 11.9109 4.12556H12.0881C15.0331 4.16836 17.428 6.60609 17.428 9.5625V10.9688C17.428 12.4558 17.9144 13.479 18.3704 14.3214C18.5401 14.6349 18.8626 14.8128 19.1957 14.8128C19.3464 14.8128 19.4993 14.7764 19.6411 14.6996C20.0965 14.4532 20.2658 13.8842 20.0193 13.4289C19.5657 12.5907 19.303 11.9194 19.303 10.9688V9.5625C19.303 7.63308 18.5557 5.81077 17.1986 4.43128C16.0356 3.24905 14.5423 2.51128 12.928 2.30766V0.9375C12.928 0.419719 12.5083 0 11.9905 0C11.4727 0 11.053 0.419719 11.053 0.9375V2.31042C7.46905 2.77542 4.67801 5.86786 4.67801 9.5625V10.9688C4.67801 12.2178 4.22459 13.0109 3.65056 14.015C3.08506 15.0042 2.44405 16.1254 2.11986 17.8552C1.96512 18.6809 2.18403 19.5251 2.72047 20.1714C3.25639 20.8172 4.04506 21.1875 4.88412 21.1875H9.19611C9.19611 22.7383 10.4578 24 12.0086 24C13.5594 24 14.8211 22.7383 14.8211 21.1875H19.115C19.9541 21.1875 20.7427 20.8172 21.2787 20.1714C21.8151 19.5252 22.034 18.6809 21.8793 17.8552ZM12.0086 22.125C11.4917 22.125 11.0711 21.7044 11.0711 21.1875H12.9461C12.9461 21.7044 12.5256 22.125 12.0086 22.125Z" fill="white"/>
</svg>
