<svg width="24" height="24" viewBox="0 0 24 24" fill="none" xmlns="http://www.w3.org/2000/svg">
<path d="M21.1875 3.1875H2.8125C1.26169 3.1875 0 4.44919 0 6V18C0 19.5508 1.26169 20.8125 2.8125 20.8125H21.1875C22.7383 20.8125 24 19.5508 24 18V6C24 4.44919 22.7383 3.1875 21.1875 3.1875ZM22.125 18C22.125 18.5169 21.7044 18.9375 21.1875 18.9375H2.8125C2.29556 18.9375 1.875 18.5169 1.875 18V10.0312H22.125V18ZM22.125 7.21875H1.875V6C1.875 5.48306 2.29556 5.0625 2.8125 5.0625H21.1875C21.7044 5.0625 22.125 5.48306 22.125 6V7.21875Z" fill="#333333"/>
<path d="M15.5625 11.4375H3.1875V13.3125H15.5625V11.4375Z" fill="#333333"/>
</svg>
