<svg width="24" height="24" viewBox="0 0 24 24" fill="none" xmlns="http://www.w3.org/2000/svg">
<path d="M21.2334 3.17529H14.2499C14.6218 2.11404 14.1994 0.901713 13.1907 0.319338C12.0507 -0.338787 10.588 0.053182 9.92984 1.19314L8.78543 3.17529H3.16071C1.93001 3.17529 0.928711 4.17654 0.928711 5.40724V17.2571C0.928711 18.4878 1.92996 19.489 3.16071 19.489H8.74887C8.80788 20.6112 8.52026 21.8581 8.2211 22.4992H6.56524C6.15105 22.4992 5.81524 22.835 5.81524 23.2492C5.81524 23.6635 6.15105 23.9992 6.56524 23.9992H17.4357C17.8499 23.9992 18.1857 23.6635 18.1857 23.2492C18.1857 22.835 17.8499 22.4992 17.4357 22.4992H15.7767C15.4628 21.847 15.155 20.5932 15.2063 19.489H20.8399C22.0706 19.489 23.0719 18.4878 23.0719 17.2571V5.01415C23.0719 4.0002 22.2472 3.17529 21.2334 3.17529V3.17529ZM6.45354 11.3124L7.03915 11.6505L6.45354 11.9886V11.3124ZM8.26465 10.626L6.72809 9.73882L10.2875 3.57364L11.8241 4.46079L8.26465 10.626ZM12.4408 1.61843C12.8644 1.86303 13.0101 2.40668 12.7655 2.83034L12.5741 3.16179L11.0375 2.27459L11.2289 1.94314C11.4735 1.51953 12.0172 1.37393 12.4408 1.61843V1.61843ZM3.16071 4.67529H7.91941L5.05399 9.63832C4.98818 9.75232 4.95349 9.88165 4.95349 10.0133V13.2876C4.95349 13.7019 5.2893 14.0376 5.70349 14.0376H17.3842C17.7984 14.0376 18.1342 13.7019 18.1342 13.2876C18.1342 12.8734 17.7984 12.5376 17.3842 12.5376H8.50254L8.91415 12.3C9.02815 12.2342 9.12284 12.1395 9.18865 12.0255L13.4323 4.67534H21.2333C21.42 4.67534 21.5719 4.82735 21.5719 5.0142V15.6705H2.42876V5.40729C2.42876 5.00365 2.75712 4.67529 3.16071 4.67529V4.67529ZM14.1623 22.4993H9.82952C10.1243 21.6017 10.2874 20.4783 10.2492 19.4891H13.7052C13.668 20.5184 13.8634 21.6285 14.1623 22.4993ZM20.84 17.9891H3.16071C2.75712 17.9891 2.42871 17.6607 2.42871 17.2571V17.1705H21.5719V17.2571C21.5719 17.6607 21.2436 17.9891 20.84 17.9891Z" fill="#333333"/>
</svg>
