<svg width="24" height="24" viewBox="0 0 24 24" fill="none" xmlns="http://www.w3.org/2000/svg">
<path d="M21.8831 23.9979H14.9727C13.8062 23.9979 12.8564 23.0481 12.8564 21.8816V13.2569C12.8564 12.0903 13.8062 11.1406 14.9727 11.1406H21.8831C23.0497 11.1406 23.9994 12.0903 23.9994 13.2569V21.8816C23.9994 23.0481 23.0497 23.9979 21.8831 23.9979ZM14.9727 12.8549C14.7507 12.8549 14.5707 13.0349 14.5707 13.2569V21.8816C14.5707 22.1036 14.7507 22.2836 14.9727 22.2836H21.8831C22.1051 22.2836 22.2851 22.1036 22.2851 21.8816V13.2569C22.2851 13.0349 22.1051 12.8549 21.8831 12.8549H14.9727Z" fill="#333333"/>
<path d="M21.8831 9.42863H14.9727C13.8062 9.42863 12.8564 8.47891 12.8564 7.31233V2.1163C12.8564 0.94972 13.8062 0 14.9727 0H21.8831C23.0497 0 23.9994 0.94972 23.9994 2.1163V7.31233C23.9994 8.47891 23.0497 9.42863 21.8831 9.42863ZM14.9727 1.7143C14.7507 1.7143 14.5707 1.8943 14.5707 2.1163V7.31233C14.5707 7.53433 14.7507 7.71434 14.9727 7.71434H21.8831C22.1051 7.71434 22.2851 7.53433 22.2851 7.31233V2.1163C22.2851 1.8943 22.1051 1.7143 21.8831 1.7143H14.9727Z" fill="#333333"/>
<path d="M9.02663 12.8572H2.1163C0.94972 12.8572 0 11.9075 0 10.7409V2.1163C0 0.94972 0.94972 0 2.1163 0H9.02663C10.1932 0 11.1429 0.94972 11.1429 2.1163V10.7409C11.1429 11.9075 10.1932 12.8572 9.02663 12.8572ZM2.1163 1.7143C1.8943 1.7143 1.7143 1.8943 1.7143 2.1163V10.7409C1.7143 10.9629 1.8943 11.1429 2.1163 11.1429H9.02663C9.24863 11.1429 9.42863 10.9629 9.42863 10.7409V2.1163C9.42863 1.8943 9.24863 1.7143 9.02663 1.7143H2.1163Z" fill="#333333"/>
<path d="M9.02663 23.9989H2.1163C0.94972 23.9989 0 23.0492 0 21.8826V16.6866C0 15.52 0.94972 14.5703 2.1163 14.5703H9.02663C10.1932 14.5703 11.1429 15.52 11.1429 16.6866V21.8826C11.1429 23.0492 10.1932 23.9989 9.02663 23.9989ZM2.1163 16.2846C1.8943 16.2846 1.7143 16.4646 1.7143 16.6866V21.8826C1.7143 22.1046 1.8943 22.2846 2.1163 22.2846H9.02663C9.24863 22.2846 9.42863 22.1046 9.42863 21.8826V16.6866C9.42863 16.4646 9.24863 16.2846 9.02663 16.2846H2.1163Z" fill="#333333"/>
</svg>
