<svg width="24" height="24" viewBox="0 0 24 24" fill="none" xmlns="http://www.w3.org/2000/svg">
<path d="M12.0002 13.3643C10.9594 13.3655 9.9504 13.006 9.14494 12.3468C8.33948 11.6877 7.7874 10.7698 7.58271 9.7493C7.5664 9.64181 7.57365 9.53205 7.60396 9.42764C7.63427 9.32323 7.68692 9.22666 7.75826 9.14462C7.82961 9.06257 7.91793 8.99702 8.01712 8.9525C8.11631 8.90799 8.224 8.88557 8.33271 8.8868C8.51139 8.8842 8.68512 8.94548 8.82262 9.05961C8.96012 9.17373 9.05235 9.3332 9.08271 9.5093C9.22396 10.1835 9.59291 10.7885 10.1276 11.2228C10.6623 11.6571 11.3301 11.8941 12.019 11.8941C12.7078 11.8941 13.3756 11.6571 13.9103 11.2228C14.445 10.7885 14.814 10.1835 14.9552 9.5093C14.9856 9.3332 15.0778 9.17373 15.2153 9.05961C15.3528 8.94548 15.5265 8.8842 15.7052 8.8868C15.8139 8.88557 15.9216 8.90799 16.0208 8.9525C16.12 8.99702 16.2083 9.06257 16.2797 9.14462C16.351 9.22666 16.4037 9.32323 16.434 9.42764C16.4643 9.53205 16.4715 9.64181 16.4552 9.7493C16.2493 10.7761 15.6917 11.6989 14.8785 12.3588C14.0653 13.0187 13.0474 13.3743 12.0002 13.3643V13.3643Z" fill="#333333"/>
<path d="M18.6751 23.2497H5.32508C5.0199 23.2501 4.71782 23.1884 4.43724 23.0683C4.15666 22.9483 3.90343 22.7724 3.69296 22.5514C3.48248 22.3304 3.31917 22.0689 3.21295 21.7828C3.10673 21.4967 3.05982 21.192 3.07508 20.8872L3.68258 7.95719C3.70772 7.37751 3.95583 6.82996 4.37509 6.42886C4.79436 6.02777 5.35236 5.80414 5.93258 5.80469H18.0676C18.6478 5.80414 19.2058 6.02777 19.6251 6.42886C20.0443 6.82996 20.2924 7.37751 20.3176 7.95719L20.9251 20.8872C20.9403 21.192 20.8934 21.4967 20.7872 21.7828C20.681 22.0689 20.5177 22.3304 20.3072 22.5514C20.0967 22.7724 19.8435 22.9483 19.5629 23.0683C19.2823 23.1884 18.9803 23.2501 18.6751 23.2497V23.2497ZM5.93258 7.31219C5.73367 7.31219 5.5429 7.39121 5.40225 7.53186C5.2616 7.67251 5.18258 7.86328 5.18258 8.06219L4.57508 20.9622C4.56999 21.0638 4.58563 21.1654 4.62104 21.2607C4.65644 21.3561 4.71088 21.4433 4.78104 21.5169C4.8512 21.5906 4.93561 21.6492 5.02913 21.6892C5.12266 21.7292 5.22335 21.7498 5.32508 21.7497H18.6751C18.7768 21.7498 18.8775 21.7292 18.971 21.6892C19.0646 21.6492 19.149 21.5906 19.2191 21.5169C19.2893 21.4433 19.3437 21.3561 19.3791 21.2607C19.4145 21.1654 19.4302 21.0638 19.4251 20.9622L18.8176 8.03219C18.8176 7.83328 18.7386 7.64251 18.5979 7.50186C18.4573 7.36121 18.2665 7.28219 18.0676 7.28219L5.93258 7.31219Z" fill="#333333"/>
<path d="M16.5 6.5625H15V5.25C15 4.45435 14.6839 3.69129 14.1213 3.12868C13.5587 2.56607 12.7956 2.25 12 2.25C11.2044 2.25 10.4413 2.56607 9.87868 3.12868C9.31607 3.69129 9 4.45435 9 5.25V6.5625H7.5V5.25C7.5 4.05653 7.97411 2.91193 8.81802 2.06802C9.66193 1.22411 10.8065 0.75 12 0.75C13.1935 0.75 14.3381 1.22411 15.182 2.06802C16.0259 2.91193 16.5 4.05653 16.5 5.25V6.5625Z" fill="#333333"/>
</svg>
