<svg width="24" height="24" viewBox="0 0 24 24" fill="none" xmlns="http://www.w3.org/2000/svg">
<g clip-path="url(#clip0_1632_147)">
<path d="M23.7276 11.0822L13.9593 1.24959C13.9468 1.23693 13.9338 1.22465 13.9206 1.21274C12.8539 0.255041 11.2421 0.25162 10.1714 1.20482C10.1581 1.21668 10.1452 1.22892 10.1325 1.24148L0.275245 11.0794C-0.0912241 11.4452 -0.0918335 12.0388 0.273932 12.4052C0.639745 12.7717 1.23332 12.7723 1.59974 12.4065L2.34374 11.664V19.7586C2.34374 21.8263 4.02599 23.5086 6.09374 23.5086H9.46874C9.98653 23.5086 10.4062 23.0888 10.4062 22.5711V14.9304H13.6875V22.5711C13.6875 23.0888 14.1072 23.5086 14.625 23.5086H17.9062C19.974 23.5086 21.6562 21.8263 21.6562 19.7586C21.6562 19.2408 21.2365 18.8211 20.7187 18.8211C20.201 18.8211 19.7812 19.2408 19.7812 19.7586C19.7812 20.7924 18.9401 21.6336 17.9062 21.6336H15.5625V13.9929C15.5625 13.4752 15.1428 13.0554 14.625 13.0554H9.46874C8.95096 13.0554 8.53124 13.4752 8.53124 13.9929V21.6336H6.09374C5.05987 21.6336 4.21874 20.7924 4.21874 19.7586V9.82106C4.21874 9.81168 4.2186 9.80235 4.21832 9.79307L11.435 2.59068C11.7862 2.29242 12.3014 2.29354 12.6512 2.59326L19.7812 9.77029V15.0711C19.7812 15.5888 20.201 16.0086 20.7187 16.0086C21.2365 16.0086 21.6562 15.5888 21.6562 15.0711V11.6576L22.3974 12.4037C22.5807 12.5882 22.8215 12.6805 23.0625 12.6805C23.3014 12.6805 23.5404 12.5897 23.7232 12.408C24.0906 12.0431 24.0925 11.4495 23.7276 11.0822Z" fill="white"/>
</g>
<defs>
<clipPath id="clip0_1632_147">
<rect width="24" height="24" fill="white"/>
</clipPath>
</defs>
</svg>
