<svg width="24" height="24" viewBox="0 0 24 24" fill="none" xmlns="http://www.w3.org/2000/svg">
<g clip-path="url(#clip0_1649_666)">
<path d="M21.6522 4.67308H20.7195C20.9804 4.21858 21.1304 3.69268 21.1304 3.13206C21.1304 1.88556 20.4225 0.797497 19.283 0.292325C18.1434 -0.212894 16.8618 -0.00664371 15.9383 0.830403L13.9694 2.6147C13.5504 1.97017 12.8244 1.54262 12 1.54262C11.1742 1.54262 10.4473 1.97143 10.0286 2.6177L8.05636 0.830356C7.13278 -0.00659678 5.85108 -0.2128 4.71169 0.292419C3.57216 0.797497 2.8643 1.88565 2.8643 3.13211C2.8643 3.69273 3.01434 4.21858 3.2752 4.67312H2.34783C1.05323 4.67308 0 5.72631 0 7.0209V10.1514C0 10.5835 0.350391 10.934 0.782625 10.934H1.56525V21.6296C1.56525 22.9242 2.61848 23.9775 3.91308 23.9775C4.67494 23.9775 19.4992 23.9775 20.087 23.9775C21.3816 23.9775 22.4348 22.9242 22.4348 21.6296V10.934H23.2174C23.6496 10.934 24 10.5836 24 10.1514V7.0209C24 5.72631 22.9468 4.67308 21.6522 4.67308ZM9.65217 22.4122H3.91303C3.4815 22.4122 3.13041 22.0611 3.13041 21.6296V10.934H9.65213V22.4122H9.65217ZM9.65217 9.36873C9.31795 9.36873 1.90186 9.36873 1.5652 9.36873V7.0209C1.5652 6.58937 1.9163 6.23828 2.34783 6.23828C2.62631 6.23828 9.31617 6.23828 9.65217 6.23828V9.36873ZM5.97052 4.67303V4.67308C5.12081 4.67308 4.4295 3.98176 4.4295 3.13206C4.4295 2.50431 4.77211 1.97767 5.346 1.72328C5.55562 1.63037 5.77139 1.58472 5.98355 1.58472C6.35227 1.58472 6.71006 1.72272 7.00533 1.99023L9.96572 4.67308H5.97052V4.67303ZM12 3.10787C12.3693 3.10787 12.679 3.36536 12.7608 3.71008L11.9974 4.4019L11.2383 3.71392C11.3186 3.36728 11.6293 3.10787 12 3.10787ZM12.7826 22.4122H11.2174V10.934H12.7826V22.4122ZM12.7826 9.36873H11.2174V6.23828C11.7769 6.23828 12.2177 6.23828 12.7826 6.23828V9.36873ZM16.9894 1.99028C17.4546 1.56878 18.0748 1.46903 18.6487 1.72337C19.2225 1.97772 19.5652 2.5044 19.5652 3.13211C19.5652 3.98181 18.8739 4.67312 18.0242 4.67312H14.029L16.9894 1.99028ZM20.8695 21.6296C20.8695 22.0612 20.5185 22.4123 20.0869 22.4123H14.3478V10.934H20.8695V21.6296ZM22.4348 9.36873C22.098 9.36873 14.6819 9.36873 14.3478 9.36873V6.23828C14.6772 6.23828 21.3665 6.23828 21.6522 6.23828C22.0837 6.23828 22.4348 6.58937 22.4348 7.0209V9.36873V9.36873Z" fill="#333333"/>
</g>
<defs>
<clipPath id="clip0_1649_666">
<rect width="24" height="24" fill="white"/>
</clipPath>
</defs>
</svg>
