<svg width="24" height="24" viewBox="0 0 24 24" fill="none" xmlns="http://www.w3.org/2000/svg">
<g clip-path="url(#clip0_1646_622)">
<path d="M23.8485 10.18C23.7916 9.80509 23.5331 9.4923 23.1762 9.36572L21.2855 8.69344C21.1737 8.37665 21.0468 8.06867 20.9062 7.77075L21.7666 5.96009C21.929 5.61865 21.8905 5.21481 21.6662 4.90945C20.9411 3.92313 20.0746 3.05664 19.0909 2.33478C18.7852 2.11041 18.3828 2.07225 18.0406 2.23506L16.2311 3.0948C15.9332 2.95417 15.6248 2.82759 15.3077 2.71575L14.6352 0.82479C14.5086 0.468608 14.1966 0.210769 13.8225 0.153195C12.4934 -0.0510651 11.5097 -0.0510651 10.1785 0.153195C9.8048 0.210769 9.49241 0.468608 9.36584 0.82479L8.69328 2.71575C8.37621 2.82759 8.06782 2.95417 7.77018 3.0948L5.95993 2.23506C5.61849 2.07239 5.21534 2.11054 4.90998 2.33478C3.92628 3.05664 3.05979 3.92313 2.33462 4.90945C2.11025 5.21481 2.07182 5.61851 2.23421 5.96009L3.09464 7.77075C2.95401 8.06812 2.82743 8.37679 2.71531 8.69344L0.824355 9.36641C0.46776 9.49299 0.209645 9.80565 0.152347 10.18C0.0491837 10.8577 0.000976562 11.4355 0.000976562 12.0007C0.000976562 12.5652 0.0491837 13.1438 0.152347 13.8214C0.209231 14.1964 0.46776 14.5091 0.82463 14.6357L2.71531 15.308C2.82743 15.6254 2.95442 15.9335 3.09464 16.2314L2.23421 18.0414C2.07182 18.3828 2.11038 18.7866 2.33434 19.0913C3.05855 20.0769 3.92504 20.9434 4.90998 21.6667C5.21534 21.891 5.61849 21.9299 5.96021 21.7664L7.76977 20.9067C8.06769 21.0473 8.37607 21.1739 8.69314 21.2857L9.3657 23.1767C9.49228 23.5328 9.80425 23.7907 10.1783 23.8482C10.8433 23.9507 11.4392 24.0003 12.0003 24.0003C12.5614 24.0003 13.1574 23.9507 13.8222 23.8482C14.1962 23.7907 14.5083 23.5328 14.6349 23.1767L15.3074 21.2857C15.6245 21.1739 15.9329 21.0473 16.2308 20.9067L18.0404 21.7664C18.3825 21.9297 18.7857 21.8909 19.091 21.6667C20.0771 20.9422 20.9435 20.0757 21.6664 19.0913C21.8903 18.7866 21.9289 18.3828 21.7665 18.0414L20.9061 16.2314C21.0467 15.9335 21.1736 15.6247 21.2854 15.308L23.1761 14.6357C23.533 14.5091 23.7915 14.1965 23.8484 13.8214C23.9515 13.1438 23.9997 12.5653 23.9997 12.0007C23.9997 11.4361 23.9517 10.8575 23.8485 10.18ZM21.8932 12.9085L20.1195 13.5394C19.8094 13.6491 19.571 13.9009 19.4776 14.217C19.3192 14.7527 19.1107 15.2595 18.8573 15.7242C18.7 16.0135 18.6902 16.3604 18.8315 16.6577L19.636 18.3497C19.2473 18.8165 18.8175 19.2471 18.35 19.6354L16.6582 18.8318C16.3606 18.6891 16.0147 18.7006 15.725 18.8573C15.2596 19.1105 14.7525 19.3187 14.2164 19.4774C13.901 19.5705 13.6492 19.8088 13.5392 20.1188L12.9081 21.8932C12.2639 21.9588 11.7369 21.9588 11.0928 21.8932L10.4617 20.1188C10.3515 19.8095 10.0997 19.5703 9.78441 19.4774C9.24807 19.3187 8.74052 19.1105 8.2758 18.8573C7.98615 18.6993 7.63961 18.6893 7.34265 18.8318L5.65085 19.636C5.1838 19.2469 4.75393 18.8171 4.36483 18.3497L5.16933 16.6577C5.31065 16.3603 5.30087 16.0135 5.14358 15.7242C4.89083 15.2609 4.68217 14.7534 4.52322 14.2163C4.42984 13.9009 4.19114 13.6491 3.88138 13.5394L2.10763 12.9085C2.07416 12.5858 2.05804 12.2885 2.05804 12.0006C2.05804 11.7127 2.07416 11.416 2.10763 11.0933L3.88179 10.462C4.19142 10.3522 4.42984 10.1004 4.52322 9.78499C4.68189 9.24933 4.89056 8.74178 5.14358 8.27638C5.30087 7.98782 5.31065 7.64018 5.16933 7.34364L4.36483 5.65157C4.7542 5.18423 5.18407 4.75367 5.65085 4.36526L7.34334 5.16949C7.63961 5.31219 7.98752 5.30076 8.27649 5.14401C8.74093 4.89086 9.24807 4.6826 9.78441 4.52393C10.0998 4.43082 10.3516 4.19185 10.4617 3.8825L11.0928 2.10806C11.7309 2.04181 12.2588 2.04181 12.9081 2.10806L13.5392 3.8825C13.6494 4.19185 13.9012 4.43096 14.2164 4.52393C14.7528 4.6826 15.2603 4.89086 15.725 5.14401C16.0147 5.302 16.3606 5.31205 16.6582 5.16949L18.35 4.36526C18.8168 4.75367 19.2467 5.18423 19.636 5.65157L18.8315 7.34364C18.6902 7.64032 18.7 7.98782 18.8573 8.27638C19.1111 8.74316 19.3196 9.25002 19.4776 9.7843C19.571 10.1004 19.8094 10.3522 20.1195 10.462L21.8932 11.0928C21.9267 11.4155 21.9428 11.7129 21.9428 12.0007C21.9428 12.2886 21.9267 12.5858 21.8932 12.9085Z" fill="#333333"/>
<path d="M12.0009 6.99609C9.37539 6.99609 7.23926 9.13208 7.23926 11.7577C7.23926 14.3834 9.37525 16.5193 12.0009 16.5193C14.6265 16.5193 16.7625 14.3834 16.7625 11.7577C16.7625 9.13208 14.6264 6.99609 12.0009 6.99609ZM12.0009 14.4623C10.5096 14.4623 9.29633 13.249 9.29633 11.7577C9.29633 10.2665 10.5096 9.05316 12.0009 9.05316C13.4921 9.05316 14.7054 10.2665 14.7054 11.7577C14.7054 13.249 13.4921 14.4623 12.0009 14.4623Z" fill="#333333"/>
</g>
<defs>
<clipPath id="clip0_1646_622">
<rect width="24" height="24" fill="white"/>
</clipPath>
</defs>
</svg>
