<svg width="24" height="24" viewBox="0 0 24 24" fill="none" xmlns="http://www.w3.org/2000/svg">
<path d="M23.0625 11.0664C23.5803 11.0664 24 10.6467 24 10.1289V5.44141C24 3.37366 22.3177 1.69141 20.25 1.69141H3.75C1.68225 1.69141 0 3.37366 0 5.44141V14.8164C0 16.8842 1.68225 18.5664 3.75 18.5664H11.0625V20.4357H7.78125C7.26347 20.4357 6.84375 20.8554 6.84375 21.3732C6.84375 21.891 7.26347 22.3107 7.78125 22.3107H16.2188C16.7365 22.3107 17.1562 21.891 17.1562 21.3732C17.1562 20.8554 16.7365 20.4357 16.2188 20.4357H12.9375V18.5664H20.25C22.3177 18.5664 24 16.8842 24 14.8164C24 14.2986 23.5803 13.8789 23.0625 13.8789C22.5447 13.8789 22.125 14.2986 22.125 14.8164C22.125 15.8503 21.2839 16.6914 20.25 16.6914H3.75C2.71613 16.6914 1.875 15.8503 1.875 14.8164V5.44141C1.875 4.40753 2.71613 3.56641 3.75 3.56641H20.25C21.2839 3.56641 22.125 4.40753 22.125 5.44141V10.1289C22.125 10.6467 22.5447 11.0664 23.0625 11.0664Z" fill="white"/>
</svg>
