<svg width="24" height="24" viewBox="0 0 24 24" fill="none" xmlns="http://www.w3.org/2000/svg">
<path d="M18.1652 5.70197C18.0375 5.61622 17.8907 5.5632 17.7376 5.54761C17.5846 5.53201 17.4301 5.55431 17.2877 5.61253L15.2768 6.43514C15.2257 5.57733 14.5408 4.89539 13.7064 4.89539H6.99779C6.1299 4.89539 5.42387 5.63222 5.42387 6.53798V12.2916C5.42387 13.1973 6.1299 13.9342 6.99779 13.9342H13.7061C14.5408 13.9342 15.2256 13.2524 15.2764 12.3944L17.2873 13.217C17.4297 13.2752 17.5842 13.2975 17.7372 13.2819C17.8903 13.2663 18.0371 13.2133 18.1648 13.1276C18.2925 13.0419 18.3972 12.926 18.4695 12.7903C18.5419 12.6545 18.5798 12.5031 18.5798 12.3493V6.48028C18.5798 6.3265 18.542 6.17507 18.4697 6.03934C18.3974 5.90361 18.2928 5.78775 18.1652 5.70197V5.70197ZM13.4051 12.0592H7.29887V6.77039H13.4051V12.0592ZM16.7051 10.9529L15.2801 10.37V8.45958L16.7051 7.87664V10.9529ZM21.1316 0H2.86801C2.27359 0.000669963 1.70371 0.237098 1.28339 0.657416C0.863075 1.07773 0.626647 1.64761 0.625977 2.24203V16.5875C0.626647 17.1819 0.863075 17.7518 1.28339 18.1721C1.70371 18.5924 2.27359 18.8288 2.86801 18.8295H5.84424V23.0625C5.84425 23.2484 5.89951 23.4301 6.00301 23.5845C6.10651 23.7389 6.25357 23.859 6.42551 23.9296C6.59745 24.0003 6.7865 24.0182 6.96865 23.9811C7.1508 23.9441 7.31782 23.8537 7.44849 23.7215L12.2835 18.8297H21.1316C21.7261 18.829 22.2959 18.5926 22.7162 18.1723C23.1366 17.752 23.373 17.1821 23.3737 16.5877V2.24203C23.373 1.64761 23.1366 1.07773 22.7162 0.657416C22.2959 0.237098 21.7261 0.000669963 21.1316 0V0ZM21.4987 16.5875C21.4986 16.6848 21.4598 16.7781 21.391 16.8469C21.3222 16.9157 21.2289 16.9544 21.1316 16.9545H11.892C11.768 16.9545 11.6452 16.9791 11.5307 17.0269C11.4163 17.0748 11.3124 17.1448 11.2253 17.233L7.71929 20.7803V17.8922C7.71929 17.6435 7.62052 17.4051 7.4447 17.2293C7.26889 17.0535 7.03043 16.9547 6.78179 16.9547H2.86801C2.7707 16.9546 2.67741 16.9159 2.6086 16.8471C2.53979 16.7783 2.50109 16.685 2.50098 16.5877V2.24203C2.50109 2.14472 2.53979 2.05143 2.6086 1.98262C2.67741 1.91382 2.7707 1.87511 2.86801 1.875H21.1316C21.2289 1.87511 21.3222 1.91382 21.391 1.98262C21.4598 2.05143 21.4986 2.14472 21.4987 2.24203V16.5875Z" fill="#333333"/>
</svg>
