<svg width="24" height="24" viewBox="0 0 24 24" fill="none" xmlns="http://www.w3.org/2000/svg">
<path d="M20.25 0H16.6875C14.6198 0 12.9375 1.68225 12.9375 3.75V7.3125C12.9375 9.38025 14.6198 11.0625 16.6875 11.0625H20.25C22.3177 11.0625 24 9.38025 24 7.3125V3.75C24 1.68225 22.3177 0 20.25 0ZM22.125 7.3125C22.125 8.34637 21.2839 9.1875 20.25 9.1875H16.6875C15.6536 9.1875 14.8125 8.34637 14.8125 7.3125V3.75C14.8125 2.71613 15.6536 1.875 16.6875 1.875H20.25C21.2839 1.875 22.125 2.71613 22.125 3.75V7.3125Z" fill="#6661E7"/>
<path d="M7.3125 0H3.75C1.68225 0 0 1.68225 0 3.75V7.3125C0 9.38025 1.68225 11.0625 3.75 11.0625H7.3125C9.38025 11.0625 11.0625 9.38025 11.0625 7.3125V3.75C11.0625 1.68225 9.38025 0 7.3125 0ZM9.1875 7.3125C9.1875 8.34637 8.34637 9.1875 7.3125 9.1875H3.75C2.71613 9.1875 1.875 8.34637 1.875 7.3125V3.75C1.875 2.71613 2.71613 1.875 3.75 1.875H7.3125C8.34637 1.875 9.1875 2.71613 9.1875 3.75V7.3125Z" fill="#6661E7"/>
<path d="M7.3125 12.9375H3.75C1.68225 12.9375 0 14.6198 0 16.6875V20.25C0 22.3177 1.68225 24 3.75 24H7.3125C9.38025 24 11.0625 22.3177 11.0625 20.25V16.6875C11.0625 14.6198 9.38025 12.9375 7.3125 12.9375ZM9.1875 20.25C9.1875 21.2839 8.34637 22.125 7.3125 22.125H3.75C2.71613 22.125 1.875 21.2839 1.875 20.25V16.6875C1.875 15.6536 2.71613 14.8125 3.75 14.8125H7.3125C8.34637 14.8125 9.1875 15.6536 9.1875 16.6875V20.25Z" fill="#6661E7"/>
<path d="M23.0625 19.3125C22.5447 19.3125 22.125 19.7322 22.125 20.25C22.125 21.2839 21.2839 22.125 20.25 22.125H16.6875C15.6536 22.125 14.8125 21.2839 14.8125 20.25V16.6875C14.8125 15.6536 15.6536 14.8125 16.6875 14.8125H20.25C20.9955 14.8125 21.6704 15.254 21.9691 15.9373C22.1766 16.4117 22.7294 16.6281 23.2037 16.4207C23.6782 16.2132 23.8945 15.6605 23.6871 15.1861C23.0898 13.8201 21.7406 12.9375 20.25 12.9375H16.6875C14.6198 12.9375 12.9375 14.6198 12.9375 16.6875V20.25C12.9375 22.3177 14.6198 24 16.6875 24H20.25C22.3177 24 24 22.3177 24 20.25C24 19.7322 23.5803 19.3125 23.0625 19.3125Z" fill="#6661E7"/>
</svg>
