<svg width="24" height="24" viewBox="0 0 24 24" fill="none" xmlns="http://www.w3.org/2000/svg">
<path d="M22.9633 0.631859C22.3044 0.0954213 21.4493 -0.113501 20.6147 0.0593276L9.6487 2.36281C8.34933 2.63183 7.40625 3.79011 7.40625 5.11695V15.6347C6.63337 15.0593 5.67605 14.7184 4.64062 14.7184C2.08177 14.7184 0 16.8002 0 19.359C0 21.9179 2.08177 23.9997 4.64062 23.9997C7.19002 23.9997 9.26583 21.9333 9.28116 19.3874C9.28125 19.3832 9.28125 19.379 9.28125 19.3747V8.82458L22.125 6.09289V12.6348C21.3521 12.0593 20.3948 11.7185 19.3594 11.7185C16.8005 11.7185 14.7188 13.8002 14.7188 16.3591C14.7188 18.9179 16.8005 20.9997 19.3594 20.9997C19.8612 20.9997 20.3552 20.9198 20.8277 20.7623C21.3189 20.5985 21.5844 20.0676 21.4206 19.5764C21.2569 19.0852 20.7259 18.8198 20.2347 18.9836C19.9538 19.0772 19.6593 19.1247 19.3593 19.1247C17.8344 19.1247 16.5937 17.8841 16.5937 16.3591C16.5937 14.8341 17.8344 13.5935 19.3593 13.5935C20.8843 13.5935 22.125 14.8341 22.125 16.3591V16.3653C22.125 16.8831 22.5447 17.3028 23.0625 17.3028C23.5802 17.3028 24 16.8831 24 16.3653V2.81286C24 1.96325 23.6221 1.1683 22.9633 0.631859ZM4.64062 22.1247C3.11569 22.1247 1.875 20.8841 1.875 19.3591C1.875 17.8341 3.11569 16.5935 4.64062 16.5935C6.16556 16.5935 7.40625 17.8341 7.40625 19.3591C7.40625 20.8841 6.16556 22.1247 4.64062 22.1247ZM22.125 4.17594L9.28125 6.90762V5.11695C9.28125 4.67464 9.59564 4.28858 10.0314 4.19834L20.9975 1.89481C21.0612 1.88164 21.1252 1.87512 21.1889 1.87512C21.4022 1.87512 21.6102 1.94811 21.7794 2.08583C21.999 2.26466 22.125 2.52964 22.125 2.81286V4.17594V4.17594Z" fill="#6661E7"/>
</svg>
