<svg width="24" height="24" viewBox="0 0 24 24" fill="none" xmlns="http://www.w3.org/2000/svg">
<path d="M23.0625 17.625C22.5447 17.625 22.125 18.0447 22.125 18.5625C22.125 19.5964 21.2839 20.4375 20.25 20.4375H13.0938L10.9383 17.6411L17.742 8.98716L22.3389 14.4711C22.348 14.4822 22.3574 14.493 22.367 14.5036C22.3673 14.504 22.3677 14.5044 22.368 14.5048C22.3691 14.506 22.3703 14.5073 22.3715 14.5086C22.4568 14.6018 22.5571 14.674 22.6657 14.7246C22.7771 14.7767 22.9006 14.8076 23.0307 14.8119C23.0331 14.812 23.0355 14.8121 23.0379 14.8121C23.0383 14.8121 23.0387 14.8121 23.0391 14.8122C23.1061 14.8139 23.1733 14.8084 23.2395 14.7958L23.242 14.7953C23.2449 14.7947 23.2478 14.7942 23.2508 14.7936C23.252 14.7933 23.2532 14.793 23.2544 14.7928C23.2569 14.7923 23.2595 14.7918 23.262 14.7912C23.2634 14.7909 23.2648 14.7906 23.2662 14.7903C23.2685 14.7898 23.2708 14.7893 23.2731 14.7887C23.2748 14.7884 23.2764 14.788 23.278 14.7876C23.28 14.7871 23.2821 14.7866 23.2842 14.7861C23.286 14.7857 23.2877 14.7852 23.2895 14.7848C23.2914 14.7843 23.2934 14.7838 23.2953 14.7833C23.2971 14.7829 23.2988 14.7824 23.3006 14.7819C23.3025 14.7814 23.3045 14.7809 23.3064 14.7804C23.3082 14.7799 23.31 14.7794 23.3118 14.7789L23.3173 14.7774C23.3192 14.7769 23.3211 14.7763 23.323 14.7758C23.3249 14.7753 23.3267 14.7747 23.3286 14.7742C23.3301 14.7738 23.3316 14.7733 23.3331 14.7728C23.3354 14.7721 23.3378 14.7714 23.34 14.7707C23.3413 14.7704 23.3425 14.7699 23.3438 14.7696C23.3461 14.7689 23.3484 14.7681 23.3507 14.7674C23.3521 14.7669 23.3535 14.7664 23.355 14.766C23.3573 14.7652 23.3596 14.7644 23.3619 14.7637C23.363 14.7633 23.364 14.7629 23.3651 14.7626C23.3677 14.7617 23.3703 14.7608 23.3729 14.7599C23.3739 14.7596 23.3749 14.7592 23.3759 14.7589C23.3785 14.7579 23.3812 14.757 23.3838 14.756C23.3846 14.7557 23.3855 14.7554 23.3863 14.7551C23.3892 14.754 23.3921 14.753 23.3949 14.7518L23.3964 14.7513C23.3996 14.7501 23.4028 14.7488 23.406 14.7476C23.4061 14.7475 23.4063 14.7474 23.4065 14.7473C23.4099 14.746 23.4134 14.7446 23.4168 14.7432C23.4585 14.7262 23.4992 14.706 23.5388 14.6826C23.5394 14.6823 23.5399 14.682 23.5405 14.6816C23.5432 14.68 23.5458 14.6784 23.5485 14.6768C23.599 14.6461 23.6464 14.6108 23.6901 14.5714C23.6909 14.5707 23.6917 14.57 23.6925 14.5693C23.6932 14.5686 23.6939 14.568 23.6946 14.5673C23.7885 14.4816 23.8613 14.3807 23.9122 14.2715C23.9645 14.1596 23.9953 14.0357 23.9994 13.905C23.9995 13.9034 23.9995 13.9017 23.9996 13.9C23.9996 13.899 23.9996 13.8979 23.9996 13.8968C23.9997 13.8937 23.9998 13.8904 23.9998 13.8872C23.9998 13.8871 23.9998 13.8871 23.9998 13.887C23.9999 13.8821 23.9999 13.8771 23.9999 13.8721V5.4375C23.9999 3.36975 22.3176 1.6875 20.2499 1.6875H3.75C1.68225 1.6875 0 3.3697 0 5.4375V18.5625C0 20.6302 1.68225 22.3125 3.75 22.3125H12.6269C12.6291 22.3125 12.6313 22.3125 12.6335 22.3125C12.6365 22.3125 12.6394 22.3125 12.6423 22.3125H20.25C22.3177 22.3125 24 20.6302 24 18.5625C24 18.0447 23.5803 17.625 23.0625 17.625ZM3.75 20.4375C2.71613 20.4375 1.875 19.5964 1.875 18.5625V5.4375C1.875 4.40363 2.71613 3.5625 3.75 3.5625H20.25C21.2839 3.5625 22.125 4.40363 22.125 5.4375V11.2972L18.4372 6.89775C18.2558 6.68128 17.9871 6.55833 17.7041 6.56259C17.4217 6.567 17.1563 6.69853 16.9818 6.92053L9.7575 16.1093L7.305 12.9276C7.12753 12.6973 6.85322 12.5625 6.5625 12.5625H6.56203C6.27113 12.5626 5.99677 12.6978 5.81939 12.9284L3.75619 15.6105C3.44053 16.0209 3.51727 16.6095 3.92766 16.9252C4.33814 17.2409 4.9267 17.1641 5.24236 16.7537L6.56325 15.0366L10.7265 20.4375H3.75Z" fill="#6661E7"/>
<path d="M6.5625 5.0625C5.01169 5.0625 3.75 6.32419 3.75 7.875C3.75 9.42581 5.01169 10.6875 6.5625 10.6875C8.11331 10.6875 9.375 9.42581 9.375 7.875C9.375 6.32419 8.11331 5.0625 6.5625 5.0625ZM6.5625 8.8125C6.04556 8.8125 5.625 8.39194 5.625 7.875C5.625 7.35806 6.04556 6.9375 6.5625 6.9375C7.07944 6.9375 7.5 7.35806 7.5 7.875C7.5 8.39194 7.07944 8.8125 6.5625 8.8125Z" fill="#6661E7"/>
</svg>
