<svg width="96" height="96" viewBox="0 0 96 96" fill="none" xmlns="http://www.w3.org/2000/svg">
<path d="M89.272 13.4303C93.3154 15.9978 96 20.5226 96 25.6744V72.5581C96 85.5047 85.5047 96 72.5581 96H25.6744C20.5226 96 15.9978 93.3154 13.4227 89.2689L13.9681 89.2943L14.5116 89.3023H72.5581C81.8057 89.3023 89.3023 81.8057 89.3023 72.5581V14.5116C89.3023 14.1487 89.2921 13.7882 89.272 13.4303ZM44.3466 49.778L44.7638 50.1264L77.9301 82.6876C75.7187 84.0508 73.114 84.8372 70.3256 84.8372H14.5116C11.7232 84.8372 9.11848 84.0508 6.90716 82.6876L40.0716 50.1264L40.4451 49.8093C41.4578 49.0694 42.7913 48.969 43.8912 49.5079L44.3466 49.778ZM70.3256 0C78.3401 0 84.8372 6.49708 84.8372 14.5116V70.3256C84.8372 73.1254 84.0443 75.7401 82.6708 77.9572L49.456 45.347L48.8822 44.825C45.1637 41.6931 39.7123 41.6844 35.9842 44.799L35.3794 45.347L2.16646 77.9572C0.79292 75.7401 0 73.1254 0 70.3256V14.5116C0 6.49708 6.49708 0 14.5116 0H70.3256ZM60.2759 18.9767C57.1951 18.9767 54.6977 21.4742 54.6977 24.555C54.6977 27.6357 57.1951 30.1332 60.2759 30.1332C63.3567 30.1332 65.8541 27.6357 65.8541 24.555C65.8541 21.4742 63.3567 18.9767 60.2759 18.9767Z" fill="#6661E7"/>
</svg>
