<svg width="45" height="96" viewBox="0 0 45 96" fill="none" xmlns="http://www.w3.org/2000/svg">
<path d="M39.015 96H5.78247C4.24983 95.9985 2.78035 95.3892 1.69634 94.3057C0.612335 93.2222 0.00225868 91.7532 0 90.2205V5.78247C0.00150602 4.24934 0.611212 2.77947 1.6953 1.69539C2.77939 0.611299 4.24934 0.00150602 5.78247 0H39.015C40.5481 0.00150602 42.018 0.611299 43.1021 1.69539C44.1862 2.77947 44.7958 4.24934 44.7973 5.78247V90.2205C44.7951 91.7532 44.1851 93.2222 43.1011 94.3057C42.0171 95.3892 40.5476 95.9985 39.015 96V96ZM5.78247 5.68855L5.68855 90.2205L39.015 90.3115L39.1088 5.78247C39.1092 5.77004 39.107 5.75758 39.1025 5.74601C39.0979 5.73445 39.091 5.72391 39.0822 5.71511C39.0734 5.70632 39.0629 5.69955 39.0513 5.69498C39.0398 5.6904 39.0274 5.68816 39.015 5.68855H5.78247Z" fill="#E175F9"/>
<path d="M19.2047 16.5401H2.85014C2.09579 16.5401 1.37237 16.2404 0.83897 15.707C0.305565 15.1736 0.00585938 14.4502 0.00585938 13.6958C0.00585938 12.9415 0.305565 12.2181 0.83897 11.6847C1.37237 11.1513 2.09579 10.8516 2.85014 10.8516H19.2047C19.9591 10.8516 20.6825 11.1513 21.2159 11.6847C21.7493 12.2181 22.049 12.9415 22.049 13.6958C22.049 14.4502 21.7493 15.1736 21.2159 15.707C20.6825 16.2404 19.9591 16.5401 19.2047 16.5401Z" fill="#E175F9"/>
<path d="M13.6867 27.9151H2.84428C2.08993 27.9151 1.36652 27.6154 0.83311 27.082C0.299705 26.5486 0 25.8252 0 25.0708C0 24.3165 0.299705 23.5931 0.83311 23.0597C1.36652 22.5263 2.08993 22.2266 2.84428 22.2266H13.6867C14.441 22.2266 15.1645 22.5263 15.6979 23.0597C16.2313 23.5931 16.531 24.3165 16.531 25.0708C16.531 25.8252 16.2313 26.5486 15.6979 27.082C15.1645 27.6154 14.441 27.9151 13.6867 27.9151Z" fill="#E175F9"/>
<path d="M13.6867 39.4698H2.84428C2.08993 39.4698 1.36652 39.1701 0.83311 38.6367C0.299705 38.1033 0 37.3799 0 36.6255C0 35.8712 0.299705 35.1478 0.83311 34.6144C1.36652 34.081 2.08993 33.7812 2.84428 33.7812H13.6867C14.441 33.7812 15.1645 34.081 15.6979 34.6144C16.2313 35.1478 16.531 35.8712 16.531 36.6255C16.531 37.3799 16.2313 38.1033 15.6979 38.6367C15.1645 39.1701 14.441 39.4698 13.6867 39.4698Z" fill="#E175F9"/>
<path d="M19.2047 50.669H2.85014C2.09579 50.669 1.37237 50.3693 0.83897 49.8359C0.305565 49.3025 0.00585938 48.5791 0.00585938 47.8247C0.00585938 47.0704 0.305565 46.347 0.83897 45.8136C1.37237 45.2802 2.09579 44.9805 2.85014 44.9805H19.2047C19.9591 44.9805 20.6825 45.2802 21.2159 45.8136C21.7493 46.347 22.049 47.0704 22.049 47.8247C22.049 48.5791 21.7493 49.3025 21.2159 49.8359C20.6825 50.3693 19.9591 50.669 19.2047 50.669Z" fill="#E175F9"/>
<path d="M13.6867 61.6925H2.84428C2.08993 61.6925 1.36652 61.3928 0.83311 60.8593C0.299705 60.3259 0 59.6025 0 58.8482C0 58.0938 0.299705 57.3704 0.83311 56.837C1.36652 56.3036 2.08993 56.0039 2.84428 56.0039H13.6867C14.441 56.0039 15.1645 56.3036 15.6979 56.837C16.2313 57.3704 16.531 58.0938 16.531 58.8482C16.531 59.6025 16.2313 60.3259 15.6979 60.8593C15.1645 61.3928 14.441 61.6925 13.6867 61.6925Z" fill="#E175F9"/>
<path d="M13.6867 73.2471H2.84428C2.08993 73.2471 1.36652 72.9474 0.83311 72.414C0.299705 71.8806 0 71.1572 0 70.4029C0 69.6485 0.299705 68.9251 0.83311 68.3917C1.36652 67.8583 2.08993 67.5586 2.84428 67.5586H13.6867C14.441 67.5586 15.1645 67.8583 15.6979 68.3917C16.2313 68.9251 16.531 69.6485 16.531 70.4029C16.531 71.1572 16.2313 71.8806 15.6979 72.414C15.1645 72.9474 14.441 73.2471 13.6867 73.2471Z" fill="#E175F9"/>
<path d="M19.2047 84.8018H2.85014C2.09579 84.8018 1.37237 84.5021 0.83897 83.9687C0.305565 83.4353 0.00585938 82.7119 0.00585938 81.9576C0.00585938 81.2032 0.305565 80.4798 0.83897 79.9464C1.37237 79.413 2.09579 79.1133 2.85014 79.1133H19.2047C19.9591 79.1133 20.6825 79.413 21.2159 79.9464C21.7493 80.4798 22.049 81.2032 22.049 81.9576C22.049 82.7119 21.7493 83.4353 21.2159 83.9687C20.6825 84.5021 19.9591 84.8018 19.2047 84.8018Z" fill="#E175F9"/>
</svg>
