<svg width="96" height="91" viewBox="0 0 96 91" fill="none" xmlns="http://www.w3.org/2000/svg">
<path d="M96 11.7848H25.2L23.1739 0H5.23478C2.33913 0 0 2.34348 0 5.23696V10.4717H14.3522L23.587 64.187C23.7913 65.3696 24.9283 66.3283 26.1304 66.3283H88.1457C91.0413 66.3283 93.3848 63.987 93.3848 61.087V55.8565H32.7783L31.5022 48.4348H79.4196C85.2022 48.4348 90.663 43.8087 91.6174 38.1087L96 11.7848Z" fill="#6661E7"/>
<path d="M42.3258 90.8743C47.3264 90.8743 51.3802 86.8206 51.3802 81.82C51.3802 76.8194 47.3264 72.7656 42.3258 72.7656C37.3253 72.7656 33.2715 76.8194 33.2715 81.82C33.2715 86.8206 37.3253 90.8743 42.3258 90.8743Z" fill="#6661E7"/>
<path d="M64.6992 81.8221C64.6992 86.82 68.7492 90.8743 73.747 90.8743C78.7492 90.8743 82.8079 86.82 82.8079 81.8221C82.8079 76.8243 78.7492 72.7656 73.747 72.7656C68.7492 72.7656 64.6992 76.8265 64.6992 81.8221Z" fill="#6661E7"/>
</svg>
