<svg width="96" height="96" viewBox="0 0 96 96" fill="none" xmlns="http://www.w3.org/2000/svg">
<path fill-rule="evenodd" clip-rule="evenodd" d="M60.5781 5.71999C58.9714 7.32676 58.9714 9.91272 58.9714 15.0847C58.9714 20.2567 58.9714 22.8426 60.5781 24.4494C62.1849 26.0561 64.7709 26.0561 69.9428 26.0561H80.9142C86.0861 26.0561 88.6721 26.0561 90.2789 24.4494C91.8856 22.8426 91.8856 20.2567 91.8856 15.0847C91.8856 9.91272 91.8856 7.32676 90.2789 5.71999C88.6721 4.11328 86.0861 4.11328 80.9142 4.11328H69.9428C64.7709 4.11328 62.1849 4.11328 60.5781 5.71999ZM5.72097 71.5486C4.11426 73.1553 4.11426 75.7413 4.11426 80.9132C4.11426 86.0852 4.11426 88.6711 5.72097 90.2779C7.32773 91.8846 9.9137 91.8846 15.0857 91.8846H26.0571C31.2291 91.8846 33.815 91.8846 35.4218 90.2779C37.0285 88.6711 37.0285 86.0852 37.0285 80.9132C37.0285 75.7413 37.0285 73.1553 35.4218 71.5486C33.815 69.9418 31.2291 69.9418 26.0571 69.9418H15.0857C9.9137 69.9418 7.32773 69.9418 5.72097 71.5486ZM58.9714 58.9704C58.9714 53.7985 58.9714 51.2125 60.5781 49.6057C62.1849 47.999 64.7709 47.999 69.9428 47.999H80.9142C86.0861 47.999 88.6721 47.999 90.2789 49.6057C91.8856 51.2125 91.8856 53.7985 91.8856 58.9704V80.9132C91.8856 86.0852 91.8856 88.6711 90.2789 90.2779C88.6721 91.8846 86.0861 91.8846 80.9142 91.8846H69.9428C64.7709 91.8846 62.1849 91.8846 60.5781 90.2779C58.9714 88.6711 58.9714 86.0852 58.9714 80.9132V58.9704ZM5.72097 5.71999C4.11426 7.32676 4.11426 9.91272 4.11426 15.0847V37.0275C4.11426 42.1995 4.11426 44.7854 5.72097 46.3922C7.32773 47.999 9.9137 47.999 15.0857 47.999H26.0571C31.2291 47.999 33.815 47.999 35.4218 46.3922C37.0285 44.7854 37.0285 42.1995 37.0285 37.0275V15.0847C37.0285 9.91272 37.0285 7.32676 35.4218 5.71999C33.815 4.11328 31.2291 4.11328 26.0571 4.11328H15.0857C9.9137 4.11328 7.32773 4.11328 5.72097 5.71999Z" fill="#6661E7"/>
<path fill-rule="evenodd" clip-rule="evenodd" d="M8.63036 8.63036L8.64369 8.62284C8.65428 8.6173 8.67249 8.60841 8.70014 8.59706C8.81962 8.54791 9.08496 8.46398 9.61461 8.39277C10.7706 8.23736 12.3834 8.22864 15.0857 8.22864H26.0571C28.7595 8.22864 30.3723 8.23736 31.5283 8.39277C32.0579 8.46398 32.3232 8.54791 32.4427 8.59706C32.4704 8.60841 32.4885 8.6173 32.4992 8.62284L32.5125 8.63036L32.5201 8.64374C32.5256 8.65433 32.5345 8.67254 32.5459 8.70019C32.595 8.81967 32.6789 9.08496 32.7502 9.61466C32.9056 10.7706 32.9143 12.3835 32.9143 15.0858V37.0286C32.9143 39.7308 32.9056 41.3436 32.7502 42.4995C32.6789 43.0294 32.595 43.2949 32.5459 43.4139C32.5345 43.4419 32.5256 43.46 32.5201 43.4704L32.5125 43.4841L32.4992 43.4913C32.4885 43.4973 32.4704 43.5061 32.4427 43.5171C32.3232 43.5664 32.0579 43.6504 31.5283 43.7217C30.3723 43.8769 28.7595 43.8857 26.0571 43.8857H15.0857C12.3834 43.8857 10.7706 43.8769 9.61461 43.7217C9.08496 43.6504 8.81962 43.5664 8.70014 43.5171C8.67249 43.5061 8.65428 43.4973 8.64369 43.4913L8.63036 43.4841L8.62279 43.4704C8.61725 43.46 8.60837 43.4419 8.59701 43.4139C8.54786 43.2949 8.46398 43.0294 8.39272 42.4995C8.23731 41.3436 8.22859 39.7308 8.22859 37.0286V15.0858C8.22859 12.3835 8.23731 10.7706 8.39272 9.61466C8.46398 9.08496 8.54786 8.81967 8.59701 8.70019C8.60837 8.67254 8.61725 8.65433 8.62279 8.64374L8.63036 8.63036ZM14.8402 1.84264e-05C14.9219 7.32835e-05 15.0037 7.3358e-05 15.0857 7.3358e-05H26.0571C26.1392 7.3358e-05 26.221 7.32835e-05 26.3026 1.84264e-05C28.6769 -0.000255859 30.8539 -0.000475686 32.6247 0.237604C34.5748 0.499766 36.6358 1.11663 38.3309 2.81183C40.0265 4.50702 40.6431 6.56817 40.9053 8.51823C41.1434 10.2891 41.1434 12.466 41.1428 14.8403C41.1428 14.9219 41.1428 15.0037 41.1428 15.0858V37.0286C41.1428 37.1108 41.1428 37.1926 41.1428 37.2743C41.1434 39.6485 41.1434 41.8253 40.9053 43.5961C40.6431 45.5462 40.0265 47.6072 38.3309 49.3023C36.6358 50.9979 34.5748 51.6145 32.6247 51.8767C30.8538 52.1148 28.6769 52.1148 26.3026 52.1143C26.221 52.1143 26.1392 52.1143 26.0571 52.1143H15.0857C15.0037 52.1143 14.9219 52.1143 14.8403 52.1143C12.466 52.1148 10.289 52.1148 8.51818 51.8767C6.56812 51.6145 4.50703 50.9979 2.81178 49.3023C1.11658 47.6072 0.499717 45.5462 0.237555 43.5961C-0.000525018 41.8253 -0.000305119 39.6485 2.40233e-05 37.2743C2.40233e-05 37.1926 2.40233e-05 37.1108 2.40233e-05 37.0286V15.0858C2.40233e-05 15.0037 2.40233e-05 14.9219 2.40233e-05 14.8403C-0.000305119 12.466 -0.000525018 10.2891 0.237555 8.51823C0.499717 6.56817 1.11658 4.50702 2.81178 2.81183C4.50703 1.11663 6.56812 0.499766 8.51818 0.237604C10.289 -0.000475686 12.4659 -0.000255859 14.8402 1.84264e-05ZM63.501 8.62284L63.4872 8.63036L63.4801 8.64374C63.4746 8.65433 63.4653 8.67254 63.4543 8.70019C63.405 8.81967 63.321 9.08496 63.2497 9.61466C63.0945 10.7706 63.0857 12.3835 63.0857 15.0858C63.0857 17.788 63.0945 19.4009 63.2497 20.5568C63.321 21.0865 63.405 21.3518 63.4543 21.4713C63.4587 21.4824 63.4664 21.5002 63.4664 21.5002C63.4719 21.5123 63.4801 21.5278 63.4801 21.5278L63.4872 21.5411L63.501 21.5487C63.5114 21.5543 63.5295 21.5631 63.5575 21.5745C63.6765 21.6236 63.942 21.7075 64.4719 21.7787C65.6278 21.9341 67.2406 21.9429 69.9428 21.9429H80.9143C83.6165 21.9429 85.2293 21.9341 86.3851 21.7787C86.9151 21.7075 87.1806 21.6236 87.2996 21.5745C87.3276 21.5631 87.3457 21.5543 87.3561 21.5487L87.3698 21.5411L87.377 21.5278C87.3825 21.5172 87.3918 21.499 87.4028 21.4713C87.4521 21.3518 87.5361 21.0865 87.6074 20.5568C87.7626 19.4009 87.7714 17.788 87.7714 15.0858C87.7714 12.3835 87.7626 10.7706 87.6074 9.61466C87.5361 9.08496 87.4521 8.81967 87.4028 8.70019C87.3918 8.67254 87.3825 8.65433 87.377 8.64374L87.3698 8.63036L87.3561 8.62284C87.3457 8.6173 87.3276 8.60841 87.2996 8.59706C87.1806 8.54791 86.9151 8.46398 86.3851 8.39277C85.2293 8.23736 83.6165 8.22864 80.9143 8.22864H69.9428C67.2406 8.22864 65.6278 8.23736 64.4719 8.39277C63.942 8.46398 63.6765 8.54791 63.5575 8.59706C63.5295 8.60841 63.5114 8.6173 63.501 8.62284ZM69.6976 1.84264e-05H81.1595C83.5342 -0.000255859 85.711 -0.000475686 87.4817 0.237604C89.4319 0.499766 91.4929 1.11663 93.188 2.81183C94.8836 4.50702 95.5002 6.56817 95.7624 8.51823C96.0005 10.2891 96.0005 12.466 95.9999 14.8403V15.3312C96.0005 17.7055 96.0005 19.8824 95.7624 21.6533C95.5002 23.6034 94.8836 25.6645 93.188 27.3597C91.4929 29.0549 89.4319 29.6717 87.4817 29.9339C85.711 30.172 83.5342 30.1718 81.1595 30.1715H69.6976C67.3229 30.1718 65.1461 30.172 63.3753 29.9339C61.4252 29.6717 59.3642 29.0549 57.6691 27.3597C55.9735 25.6645 55.3569 23.6034 55.0947 21.6533C54.8566 19.8824 54.8566 17.7055 54.8571 15.3312C54.8571 15.2496 54.8571 15.1678 54.8571 15.0858C54.8571 15.0037 54.8571 14.9219 54.8571 14.8403C54.8566 12.466 54.8566 10.2891 55.0947 8.51823C55.3569 6.56817 55.9735 4.50702 57.6691 2.81183C59.3642 1.11663 61.4252 0.499766 63.3753 0.237604C65.1461 -0.000475686 67.3229 -0.000255859 69.6976 1.84264e-05ZM69.6976 43.8857H81.1595C83.5342 43.8857 85.711 43.8852 87.4817 44.1232C89.4319 44.3854 91.4929 45.002 93.188 46.6977C94.8836 48.3928 95.5002 50.4537 95.7624 52.4039C96.0005 54.1747 96.0005 56.3514 95.9999 58.7262V81.16C96.0005 83.5342 96.0005 85.711 95.7624 87.4817C95.5002 89.4319 94.8836 91.4929 93.188 93.188C91.4929 94.8836 89.4319 95.5002 87.4817 95.7624C85.711 96.0005 83.5342 96.0005 81.1595 95.9999H69.6976C67.3229 96.0005 65.1461 96.0005 63.3753 95.7624C61.4252 95.5002 59.3642 94.8836 57.6691 93.188C55.9735 91.4929 55.3569 89.4319 55.0947 87.4817C54.8566 85.711 54.8566 83.5342 54.8571 81.16V58.9714C54.8571 58.8897 54.8571 58.8074 54.8571 58.7262C54.8566 56.3514 54.8566 54.1747 55.0947 52.4039C55.3569 50.4537 55.9735 48.3928 57.6691 46.6977C59.3642 45.002 61.4252 44.3854 63.3753 44.1232C65.1461 43.8852 67.3229 43.8857 69.6976 43.8857ZM63.501 52.5087L63.4872 52.5158L63.4801 52.5295C63.4746 52.54 63.4653 52.5581 63.4543 52.586C63.405 52.7056 63.321 52.9706 63.2497 53.5005C63.0945 54.6563 63.0857 56.2691 63.0857 58.9714V80.9142C63.0857 83.6165 63.0945 85.2293 63.2497 86.3851C63.321 86.9151 63.405 87.1806 63.4543 87.2996C63.4653 87.3276 63.4746 87.3457 63.4801 87.3561L63.4872 87.3698L63.501 87.377C63.5114 87.383 63.5295 87.3918 63.5575 87.4027C63.6765 87.4521 63.942 87.536 64.4719 87.6074C65.6278 87.7626 67.2406 87.7714 69.9428 87.7714H80.9143C83.6165 87.7714 85.2293 87.7626 86.3851 87.6074C86.9151 87.536 87.1806 87.4521 87.2996 87.4027C87.3276 87.3918 87.3457 87.383 87.3561 87.377L87.3698 87.3698L87.377 87.3561C87.3825 87.3457 87.3918 87.3276 87.4028 87.2996C87.4521 87.1806 87.5361 86.9151 87.6074 86.3851C87.7626 85.2293 87.7714 83.6165 87.7714 80.9142V58.9714C87.7714 56.2691 87.7626 54.6563 87.6074 53.5005C87.5361 52.9706 87.4521 52.7056 87.4028 52.586C87.3962 52.5696 87.3901 52.5564 87.3857 52.546L87.377 52.5295L87.3698 52.5158L87.3561 52.5087C87.3457 52.5032 87.3276 52.4939 87.2996 52.4829C87.1806 52.4335 86.9151 52.3496 86.3851 52.2783C85.2293 52.123 83.6165 52.1143 80.9143 52.1143H69.9428C67.2406 52.1143 65.6278 52.123 64.4719 52.2783C63.942 52.3496 63.6765 52.4335 63.5575 52.4829C63.5295 52.4939 63.5114 52.5032 63.501 52.5087ZM8.64369 74.4515L8.63036 74.4587L8.62279 74.4724C8.61725 74.4828 8.60837 74.5009 8.59701 74.5289C8.54786 74.6485 8.46393 74.9134 8.39272 75.4434C8.23731 76.5992 8.22859 78.212 8.22859 80.9142C8.22859 83.6165 8.23731 85.2293 8.39272 86.3851C8.46393 86.9151 8.54786 87.1806 8.59701 87.2996C8.60837 87.3276 8.61725 87.3457 8.62279 87.3561L8.63036 87.3698L8.64369 87.377C8.65428 87.383 8.67249 87.3918 8.70014 87.4027C8.81962 87.4521 9.08496 87.536 9.61461 87.6074C10.7706 87.7626 12.3834 87.7714 15.0857 87.7714H26.0571C28.7595 87.7714 30.3723 87.7626 31.5283 87.6074C32.0579 87.536 32.3232 87.4521 32.4427 87.4027C32.4567 87.3973 32.4776 87.3879 32.4776 87.3879L32.4992 87.377L32.5125 87.3698L32.5201 87.3561L32.5281 87.3402C32.533 87.3298 32.539 87.3166 32.5459 87.2996C32.595 87.1806 32.6789 86.9151 32.7502 86.3851C32.9056 85.2293 32.9143 83.6165 32.9143 80.9142C32.9143 78.212 32.9056 76.5992 32.7502 75.4434C32.6789 74.9134 32.595 74.6485 32.5459 74.5289C32.5345 74.5009 32.5256 74.4828 32.5201 74.4724L32.5125 74.4587L32.4992 74.4515C32.4885 74.446 32.4704 74.4367 32.4427 74.4257C32.3232 74.3764 32.0579 74.2924 31.5283 74.2211C30.3723 74.0659 28.7595 74.0571 26.0571 74.0571H15.0857C12.3834 74.0571 10.7706 74.0659 9.61461 74.2211C9.08496 74.2924 8.81962 74.3764 8.70014 74.4257C8.67249 74.4367 8.65428 74.446 8.64369 74.4515ZM14.8403 65.8285H26.3026C28.6769 65.8285 30.8538 65.828 32.6247 66.0661C34.5748 66.3283 36.6358 66.9449 38.3309 68.6405C40.0265 70.3356 40.6431 72.3966 40.9053 74.3467C41.1434 76.1175 41.1434 78.2943 41.1428 80.669V81.16C41.1434 83.5342 41.1434 85.711 40.9053 87.4817C40.6431 89.4319 40.0265 91.4929 38.3309 93.188C36.6358 94.8836 34.5748 95.5002 32.6247 95.7624C30.8538 96.0005 28.6769 96.0005 26.3026 95.9999H14.8402C12.466 96.0005 10.289 96.0005 8.51818 95.7624C6.56812 95.5002 4.50703 94.8836 2.81178 93.188C1.11658 91.4929 0.499717 89.4319 0.237555 87.4817C-0.000525018 85.711 -0.000305119 83.5342 2.40233e-05 81.16V80.669C-0.000305119 78.2943 -0.000525018 76.1175 0.237555 74.3467C0.499717 72.3966 1.11658 70.3356 2.81178 68.6405C4.50703 66.9449 6.56812 66.3283 8.51818 66.0661C10.289 65.828 12.466 65.8285 14.8403 65.8285Z" fill="#6661E7"/>
</svg>
