<svg width="96" height="96" viewBox="0 0 96 96" fill="none" xmlns="http://www.w3.org/2000/svg">
<g clip-path="url(#clip0_1617_125)">
<path d="M86.2666 0H9.73344C4.3565 0 0 4.3565 0 9.73344V86.2666C0 91.6435 4.3565 96 9.73344 96H86.2666C91.6435 96 96 91.6435 96 86.2666V9.75307C96.0196 4.37612 91.6435 0 86.2666 0ZM58.9894 9.38021H67.3295V17.7204H58.9894V9.38021ZM43.8397 9.38021H52.1799V17.7204H43.8397V9.38021V9.38021ZM28.6705 9.38021H37.0106V17.7204H28.6705V9.38021ZM21.8414 86.659H13.5012V78.3189H21.8414V86.659ZM21.8414 17.7204H13.5012V9.38021H21.8414V17.7204ZM37.0106 86.659H28.6705V78.3189H37.0106V86.659ZM52.1603 86.659H43.8201V78.3189H52.1603V86.659ZM67.3295 86.659H58.9894V78.3189H67.3295V86.659ZM69.1742 50.3745L37.1676 68.8602C35.3622 69.9002 33.0859 68.6051 33.0859 66.5053V29.5339C33.0859 27.4342 35.3622 26.139 37.1676 27.1791L69.1742 45.6648C70.9992 46.7048 70.9992 49.3344 69.1742 50.3745ZM82.4988 86.659H74.1586V78.3189H82.4988V86.659ZM82.4988 17.7204H74.1586V9.38021H82.4988V17.7204Z" fill="#6661E7"/>
</g>
<defs>
<clipPath id="clip0_1617_125">
<rect width="96" height="96" fill="white"/>
</clipPath>
</defs>
</svg>
