<svg width="96" height="96" viewBox="0 0 96 96" fill="none" xmlns="http://www.w3.org/2000/svg">
<g clip-path="url(#clip0_1616_101)">
<path d="M83.3682 7.57894H65.4852C61.1044 2.91694 54.8868 0 47.9997 0C41.1126 0 34.8949 2.91694 30.5144 7.57894H12.6312C6.36269 7.57894 1.2627 12.6788 1.2627 18.9474V84.6317C1.26288 90.9002 6.36269 96 12.6312 96H83.368C89.6365 96 94.7365 90.9002 94.7365 84.6315V18.9474C94.7365 12.6788 89.6367 7.57894 83.3682 7.57894ZM44.2101 88.4211H12.6312C10.5417 88.4211 8.84163 86.7212 8.84163 84.6315V18.9474C8.84163 16.8579 10.5415 15.1579 12.6312 15.1579H25.6878C24.5991 17.8954 23.9997 20.8791 23.9997 24C23.9997 35.9441 32.7708 45.8773 44.2101 47.6998V88.4211ZM31.5786 24C31.5786 16.2497 36.9773 9.74119 44.2101 8.02537V24H51.7891V8.02537C59.0219 9.74119 64.4206 16.2501 64.4206 24C64.4206 33.0546 57.0541 40.4211 47.9995 40.4211C38.9451 40.4211 31.5786 33.0546 31.5786 24ZM87.1576 84.6315C87.1576 86.721 85.4577 88.4211 83.368 88.4211H51.7891V47.6998C63.2286 45.8773 71.9997 35.9445 71.9997 24C71.9997 20.8791 71.4003 17.8954 70.3116 15.1579H83.3682C85.4577 15.1579 87.1578 16.8578 87.1578 18.9474V84.6315H87.1576Z" fill="#E175F9"/>
<path d="M35.3688 55.5781H17.6846V63.1571H35.3688V55.5781Z" fill="#E175F9"/>
<path d="M35.3688 70.7383H17.6846V78.3172H35.3688V70.7383Z" fill="#E175F9"/>
<path d="M78.3161 55.5781H60.6318V63.1571H78.3161V55.5781Z" fill="#E175F9"/>
<path d="M78.3161 70.7383H60.6318V78.3172H78.3161V70.7383Z" fill="#E175F9"/>
</g>
<defs>
<clipPath id="clip0_1616_101">
<rect width="96" height="96" fill="white"/>
</clipPath>
</defs>
</svg>
