<svg width="24" height="24" viewBox="0 0 24 24" fill="none" xmlns="http://www.w3.org/2000/svg">
<g clip-path="url(#clip0_203_40)">
<path d="M24.0016 23.0001C24.0016 23.2653 23.8963 23.5196 23.7087 23.7072C23.5212 23.8947 23.2668 24.0001 23.0016 24.0001H1.00161C0.736395 24.0001 0.482041 23.8947 0.294505 23.7072C0.106968 23.5196 0.00161154 23.2653 0.00161154 23.0001C0.00161154 22.7348 0.106968 22.4805 0.294505 22.293C0.482041 22.1054 0.736395 22.0001 1.00161 22.0001H23.0016C23.2668 22.0001 23.5212 22.1054 23.7087 22.293C23.8963 22.4805 24.0016 22.7348 24.0016 23.0001ZM0.292612 8.55206C0.0771338 8.15238 -0.0226938 7.70056 0.00433197 7.24731C0.0313577 6.79405 0.184167 6.35729 0.445612 5.98606C0.87287 5.35917 1.44506 4.84462 2.11361 4.48606L9.61461 0.582055C10.3519 0.198686 11.1706 -0.00146484 12.0016 -0.00146484C12.8326 -0.00146484 13.6514 0.198686 14.3886 0.582055L21.8886 4.48906C22.5572 4.84762 23.1294 5.36217 23.5566 5.98906C23.8181 6.36029 23.9709 6.79705 23.9979 7.25031C24.0249 7.70356 23.9251 8.15538 23.7096 8.55506C23.4776 8.99389 23.1297 9.36066 22.7037 9.61544C22.2777 9.87023 21.79 10.0033 21.2936 10.0001H21.0016V18.0001H22.0016C22.2668 18.0001 22.5212 18.1054 22.7087 18.2929C22.8963 18.4805 23.0016 18.7348 23.0016 19.0001C23.0016 19.2653 22.8963 19.5196 22.7087 19.7072C22.5212 19.8947 22.2668 20.0001 22.0016 20.0001H2.00161C1.7364 20.0001 1.48204 19.8947 1.2945 19.7072C1.10697 19.5196 1.00161 19.2653 1.00161 19.0001C1.00161 18.7348 1.10697 18.4805 1.2945 18.2929C1.48204 18.1054 1.7364 18.0001 2.00161 18.0001H3.00161V10.0001H2.70961C2.21277 10.0032 1.72462 9.86976 1.2984 9.61442C0.872183 9.35908 0.52427 8.9916 0.292612 8.55206V8.55206ZM5.00161 18.0001H8.00161V10.0001H5.00161V18.0001ZM10.0016 10.0001V18.0001H14.0016V10.0001H10.0016ZM19.0016 10.0001H16.0016V18.0001H19.0016V10.0001ZM2.06461 7.62506C2.12736 7.74074 2.22073 7.83691 2.33449 7.90306C2.44826 7.9692 2.57804 8.00276 2.70961 8.00006H21.2936C21.4252 8.00276 21.555 7.9692 21.6687 7.90306C21.7825 7.83691 21.8759 7.74074 21.9386 7.62506C21.9843 7.54862 22.0064 7.46039 22.0022 7.37143C21.9979 7.28248 21.9674 7.19676 21.9146 7.12506C21.6723 6.76497 21.3468 6.4686 20.9656 6.26106L13.4656 2.35406C13.0136 2.11948 12.5119 1.99703 12.0026 1.99703C11.4934 1.99703 10.9916 2.11948 10.5396 2.35406L3.03961 6.26106C2.6586 6.46926 2.33314 6.76591 2.09061 7.12606C2.0377 7.19746 2.00701 7.28288 2.00239 7.37164C1.99777 7.46039 2.01941 7.54854 2.06461 7.62506V7.62506Z" fill="#333333"/>
</g>
<defs>
<clipPath id="clip0_203_40">
<rect width="24" height="24" fill="white"/>
</clipPath>
</defs>
</svg>
