<svg width="512" height="512" viewBox="0 0 512 512" fill="none" xmlns="http://www.w3.org/2000/svg">
<g clip-path="url(#clip0_203_61)">
<path d="M512.001 239.936C508.915 190.016 491.289 142.091 461.295 102.068C431.302 62.0444 390.251 31.6733 343.205 14.6984C296.159 -2.27651 245.174 -5.11307 196.535 6.53839C147.897 18.1898 103.731 43.82 69.4823 80.269C35.2339 116.718 12.4004 162.393 3.79674 211.662C-4.80697 260.931 1.19523 311.641 21.0634 357.54C40.9315 403.44 73.7971 442.521 115.608 469.968C157.419 497.414 206.349 512.025 256.363 512H405.334C433.615 511.972 460.73 500.725 480.728 480.727C500.725 460.729 511.972 433.614 512.001 405.333V239.936ZM469.334 405.333C469.334 422.307 462.591 438.586 450.589 450.588C438.587 462.59 422.308 469.333 405.334 469.333H256.363C226.261 469.32 196.499 462.961 169.018 450.673C141.538 438.385 116.956 420.442 96.8753 398.016C76.6977 375.6 61.5458 349.13 52.4357 320.379C43.3256 291.629 40.4678 261.263 44.054 231.317C49.7166 184.084 70.938 140.079 104.373 106.238C137.807 72.3979 181.554 50.6475 228.715 44.4158C237.915 43.2628 247.177 42.6785 256.449 42.6665C306.165 42.5309 354.343 59.9017 392.534 91.7331C414.839 110.271 433.146 133.144 446.348 158.968C459.549 184.791 467.369 213.027 469.334 241.962V405.333Z" fill="#333333"/>
<path d="M170.665 192H255.999C261.657 192 267.083 189.753 271.084 185.752C275.084 181.751 277.332 176.325 277.332 170.667C277.332 165.009 275.084 159.583 271.084 155.582C267.083 151.581 261.657 149.333 255.999 149.333H170.665C165.007 149.333 159.581 151.581 155.58 155.582C151.58 159.583 149.332 165.009 149.332 170.667C149.332 176.325 151.58 181.751 155.58 185.752C159.581 189.753 165.007 192 170.665 192Z" fill="#333333"/>
<path d="M341.332 234.667H170.665C165.007 234.667 159.581 236.914 155.58 240.915C151.58 244.916 149.332 250.342 149.332 256C149.332 261.658 151.58 267.084 155.58 271.085C159.581 275.086 165.007 277.333 170.665 277.333H341.332C346.99 277.333 352.416 275.086 356.417 271.085C360.418 267.084 362.665 261.658 362.665 256C362.665 250.342 360.418 244.916 356.417 240.915C352.416 236.914 346.99 234.667 341.332 234.667Z" fill="#333333"/>
<path d="M341.332 320H170.665C165.007 320 159.581 322.248 155.58 326.248C151.58 330.249 149.332 335.675 149.332 341.333C149.332 346.991 151.58 352.418 155.58 356.418C159.581 360.419 165.007 362.667 170.665 362.667H341.332C346.99 362.667 352.416 360.419 356.417 356.418C360.418 352.418 362.665 346.991 362.665 341.333C362.665 335.675 360.418 330.249 356.417 326.248C352.416 322.248 346.99 320 341.332 320Z" fill="#333333"/>
</g>
<defs>
<clipPath id="clip0_203_61">
<rect width="512" height="512" fill="white"/>
</clipPath>
</defs>
</svg>
