<svg width="512" height="512" viewBox="0 0 512 512" fill="none" xmlns="http://www.w3.org/2000/svg">
<g clip-path="url(#clip0_203_59)">
<path d="M373.335 40.896C349.313 41.2696 325.814 47.9755 305.213 60.3364C284.611 72.6974 267.636 90.2756 256.002 111.296C244.367 90.2756 227.392 72.6974 206.791 60.3364C186.189 47.9755 162.691 41.2696 138.668 40.896C100.374 42.5598 64.2941 59.3121 38.3117 87.493C12.3294 115.674 -1.44363 152.993 0.00171437 191.296C0.00171437 288.299 102.103 394.24 187.735 466.069C206.854 482.136 231.028 490.945 256.002 490.945C280.975 490.945 305.149 482.136 324.268 466.069C409.9 394.24 512.002 288.299 512.002 191.296C513.447 152.993 499.674 115.674 473.692 87.493C447.709 59.3121 411.63 42.5598 373.335 40.896Z" fill="#ED4955"/>
</g>
<defs>
<clipPath id="clip0_203_59">
<rect width="512" height="512" fill="white"/>
</clipPath>
</defs>
</svg>
