<svg width="512" height="512" viewBox="0 0 512 512" fill="none" xmlns="http://www.w3.org/2000/svg">
<g clip-path="url(#clip0_203_68)">
<path d="M60.7772 502.4C72.4262 507.378 85.3051 508.73 97.734 506.28C110.163 503.829 121.565 497.689 130.452 488.661L255.999 363.797L381.545 488.661C387.399 494.601 394.373 499.32 402.063 502.546C409.753 505.772 418.006 507.441 426.345 507.456C434.917 507.431 443.399 505.713 451.305 502.4C463.049 497.647 473.088 489.464 480.109 478.918C487.131 468.372 490.81 455.954 490.665 443.285V106.667C490.631 78.3873 479.382 51.2759 459.386 31.2794C439.389 11.2828 412.278 0.0338743 383.999 0L127.999 0C99.7191 0.0338743 72.6077 11.2828 52.6112 31.2794C32.6147 51.2759 21.3657 78.3873 21.3318 106.667V443.285C21.1942 455.964 24.8855 468.389 31.9231 478.936C38.9607 489.483 49.017 497.661 60.7772 502.4V502.4Z" fill="#333333"/>
</g>
<defs>
<clipPath id="clip0_203_68">
<rect width="512" height="512" fill="white"/>
</clipPath>
</defs>
</svg>
