<svg width="24" height="24" viewBox="0 0 24 24" fill="none" xmlns="http://www.w3.org/2000/svg">
<path d="M2.76518 18.912C-0.296727 14.8336 -0.296727 9.13817 2.76518 5.05975C3.11257 4.59763 3.77148 4.50228 4.23465 4.85073C4.69781 5.19917 4.79106 5.85702 4.44367 6.32019C1.93825 9.65569 1.93825 14.3161 4.44367 17.6516C4.79106 18.1147 4.69781 18.7726 4.23465 19.121C3.77344 19.467 3.11425 19.3773 2.76518 18.912Z" fill="#333333"/>
<path d="M19.7666 19.1211C19.3035 18.7727 19.2102 18.1148 19.5576 17.6516C22.063 14.3161 22.063 9.65566 19.5576 6.32023C19.2102 5.85706 19.3035 5.19921 19.7666 4.85076C20.2298 4.50337 20.8898 4.59767 21.2361 5.05979C24.298 9.1382 24.298 14.8336 21.2361 18.912C20.8876 19.3767 20.2288 19.4676 19.7666 19.1211Z" fill="#333333"/>
<path d="M6.52367 16.883C4.02336 14.0917 4.02336 9.88006 6.52367 7.08867C6.91101 6.65726 7.57712 6.62242 8.00545 7.00668C8.43686 7.39297 8.47372 8.05705 8.08744 8.48846C6.30234 10.4826 6.30234 13.4891 8.08744 15.4832C8.47372 15.9146 8.43686 16.5786 8.00545 16.965C7.57551 17.3508 6.91038 17.3157 6.52367 16.883Z" fill="#333333"/>
<path d="M15.9938 16.9648C15.5624 16.5785 15.5255 15.9144 15.9118 15.483C17.6969 13.4889 17.6969 10.4824 15.9118 8.48827C15.5255 8.05686 15.5624 7.39285 15.9938 7.00649C16.4241 6.62118 17.0892 6.65602 17.4756 7.08848C19.9759 9.8798 19.9759 14.0914 17.4756 16.8828C17.089 17.3153 16.4238 17.3507 15.9938 16.9648Z" fill="#333333"/>
<path d="M11.9995 15.1338C10.2637 15.1338 8.85156 13.7217 8.85156 11.9858C8.85156 10.25 10.2637 8.83789 11.9995 8.83789C13.7354 8.83789 15.1475 10.25 15.1475 11.9858C15.1475 13.7217 13.7354 15.1338 11.9995 15.1338Z" fill="#333333"/>
</svg>
