<svg width="512" height="512" viewBox="0 0 512 512" fill="none" xmlns="http://www.w3.org/2000/svg">
<g clip-path="url(#clip0_203_66)">
<path d="M429.591 512C421.699 511.978 413.889 510.393 406.613 507.335C399.338 504.278 392.74 499.809 387.201 494.187L256.001 363.755L124.801 494.272C116.375 502.821 105.569 508.633 93.7916 510.95C82.014 513.268 69.8115 511.983 58.7747 507.264C47.6283 502.781 38.093 495.04 31.4138 485.054C24.7346 475.068 21.222 463.299 21.3347 451.285V106.667C21.3347 78.3769 32.5727 51.2458 52.5766 31.2419C72.5805 11.2381 99.7116 0 128.001 0L384.001 0C398.009 0 411.88 2.75902 424.821 8.11952C437.762 13.48 449.521 21.337 459.426 31.2419C469.331 41.1469 477.188 52.9057 482.549 65.8471C487.909 78.7885 490.668 92.659 490.668 106.667V451.285C490.788 463.289 487.287 475.051 480.624 485.036C473.961 495.021 464.444 502.767 453.313 507.264C445.8 510.406 437.735 512.017 429.591 512ZM128.001 42.6667C111.027 42.6667 94.7488 49.4095 82.7465 61.4118C70.7442 73.4142 64.0013 89.6928 64.0013 106.667V451.285C63.9936 454.84 65.0396 458.318 67.0072 461.278C68.9748 464.239 71.7757 466.55 75.0561 467.92C78.3365 469.29 81.9492 469.656 85.4379 468.974C88.9267 468.291 92.1349 466.59 94.6573 464.085V464.085L241.068 318.571C245.065 314.597 250.472 312.367 256.108 312.367C261.744 312.367 267.151 314.597 271.148 318.571L417.388 464.043C419.91 466.548 423.119 468.249 426.607 468.931C430.096 469.614 433.709 469.247 436.989 467.877C440.27 466.507 443.071 464.196 445.038 461.236C447.006 458.275 448.052 454.798 448.044 451.243V106.667C448.044 89.6928 441.301 73.4142 429.299 61.4118C417.297 49.4095 401.018 42.6667 384.044 42.6667H128.001Z" fill="#333333"/>
</g>
<defs>
<clipPath id="clip0_203_66">
<rect width="512" height="512" fill="white"/>
</clipPath>
</defs>
</svg>
