<svg width="24" height="24" viewBox="0 0 24 24" fill="none" xmlns="http://www.w3.org/2000/svg">
<g clip-path="url(#clip0_203_51)">
<path d="M7.70726 9.25579C8.09826 9.64679 8.09826 10.2798 7.70726 10.6698C7.31626 11.0608 6.68326 11.0608 6.29326 10.6698C5.90226 10.2788 5.90226 9.64579 6.29326 9.25579C6.68426 8.86479 7.31726 8.86479 7.70726 9.25579ZM21.5593 15.3408L20.9943 15.9058C20.9673 17.1388 20.4893 18.3628 19.5593 19.3048L16.3923 22.5128C15.4493 23.4678 14.1913 23.9958 12.8493 23.9998H12.8323C11.4973 23.9998 10.2423 23.4798 9.29826 22.5358L1.88226 15.1828C1.23226 14.5338 0.918256 13.6408 1.01826 12.7298L1.78326 5.81379C1.83426 5.35779 2.18726 4.99479 2.64126 4.93279L9.53026 3.99079C10.4623 3.86679 11.4003 4.18379 12.0583 4.84179L19.5333 12.2538C19.9203 12.6408 20.2303 13.0768 20.4643 13.5418C21.2763 12.3758 21.1623 10.7468 20.1223 9.70679L12.5313 2.30179C12.3023 2.07279 11.9863 1.96679 11.6803 2.00979L4.79126 2.95179C4.24226 3.02579 3.73926 2.64279 3.66426 2.09679C3.59026 1.54979 3.97326 1.04579 4.51926 0.97079L11.4093 0.0277901C12.3303 -0.10321 13.2783 0.21879 13.9373 0.87979L21.5263 8.28479C23.4723 10.2298 23.4833 13.3918 21.5583 15.3418L21.5593 15.3408ZM18.1213 13.6708L10.6463 6.25879C10.4233 6.03579 10.1103 5.93279 9.79926 5.97179L3.68426 6.80879L3.00526 12.9488C2.97226 13.2518 3.07626 13.5498 3.29226 13.7648L10.7083 21.1178C11.2773 21.6878 12.0303 21.9988 12.8313 21.9988H12.8413C13.6473 21.9968 14.4023 21.6798 14.9673 21.1058L18.1343 17.8978C19.2893 16.7278 19.2833 14.8308 18.1203 13.6688L18.1213 13.6708Z" fill="#333333"/>
</g>
<defs>
<clipPath id="clip0_203_51">
<rect width="24" height="24" fill="white"/>
</clipPath>
</defs>
</svg>
