<svg width="24" height="24" viewBox="0 0 24 24" fill="none" xmlns="http://www.w3.org/2000/svg">
<g clip-path="url(#clip0_203_91)">
<path d="M22.903 6.53798C22.227 6.19998 21.43 6.27098 20.826 6.72598C20.787 6.75498 20.75 6.78798 20.716 6.82198L18.959 8.59498C18.748 6.02998 16.618 4.00098 14 4.00098H5C2.243 3.99998 0 6.24298 0 8.99998V15C0 17.757 2.243 20 5 20H14C16.629 20 18.768 17.953 18.962 15.373L20.718 17.127C20.752 17.16 20.787 17.19 20.825 17.219C21.177 17.483 21.593 17.617 22.013 17.617C22.316 17.617 22.619 17.548 22.903 17.406C23.58 17.068 24 16.387 24 15.632V8.31398C24 7.55698 23.58 6.87698 22.903 6.53898V6.53798ZM14 18H5C3.346 18 2 16.654 2 15V8.99998C2 7.34598 3.346 5.99998 5 5.99998H14C15.654 5.99998 17 7.34598 17 8.99998V15C17 16.654 15.654 18 14 18V18ZM19 12.583V11.394L22 8.36598L22.025 15.604L19 12.582V12.583Z" fill="#333333"/>
</g>
<defs>
<clipPath id="clip0_203_91">
<rect width="24" height="24" fill="white"/>
</clipPath>
</defs>
</svg>
