<svg width="24" height="24" viewBox="0 0 24 24" fill="none" xmlns="http://www.w3.org/2000/svg">
<path d="M16.1332 22.9995C17.1037 22.9992 17.7945 22.801 18.1855 22.4097L20.529 20.0665C20.6972 19.8982 21.0537 19.4232 20.733 18.6482C20.0865 17.087 15.9297 13.9655 14.8027 13.9655C14.562 13.9655 14.3407 14.0542 14.1797 14.215L11.9525 16.4422C9.17422 15.6342 8.06522 13.3832 7.70147 12.3845L10.1092 9.97672C10.3952 9.69072 10.435 9.29147 10.2272 8.78972C9.74872 7.63447 6.63597 3.26172 4.87822 3.26172C4.56397 3.26172 4.27272 3.37997 4.05797 3.59472L1.71447 5.93822C0.231973 7.42097 1.71922 14.215 5.79322 18.2892C9.02897 21.5257 13.4217 22.9997 16.1332 22.9995ZM2.81447 7.01647L4.98072 4.85022C5.31822 5.02372 7.19072 6.51997 8.71522 9.19172L6.41472 11.4922C6.12697 11.78 6.02347 12.2005 6.14472 12.5892C6.46122 13.604 7.80597 16.9937 11.822 18.0025C11.9082 18.0242 12.4585 18.365 12.859 17.7147L14.9757 15.598C16.033 16.1082 18.8392 18.2565 19.274 19.1422C19.274 19.1422 17.4352 21.5665 16.133 21.4585C14.1332 21.2927 10.0067 20.3245 6.88197 17.1997C2.96047 13.2782 2.34222 7.74822 2.81447 7.01647V7.01647Z" fill="#333333"/>
<path d="M16.75 11.1668C17.1755 11.1668 17.5 10.8221 17.5 10.3966V3.30931C17.5 2.88381 17.1755 2.53906 16.75 2.53906C16.3245 2.53906 16 2.88381 16 3.30931V10.3966C16 10.8221 16.3245 11.1668 16.75 11.1668Z" fill="#333333"/>
<path d="M14.25 12.401C14.6755 12.401 15 12.0563 15 11.6308V1.77025C15 1.34475 14.6755 1 14.25 1C13.8245 1 13.5 1.34475 13.5 1.77025V11.6308C13.5 12.0563 13.8245 12.401 14.25 12.401Z" fill="#333333"/>
<path d="M11.75 9.01297C12.1755 9.01297 12.5 8.66822 12.5 8.24272V5.46947C12.5 5.04397 12.1755 4.69922 11.75 4.69922C11.3245 4.69922 11 5.04397 11 5.46947V8.24272C11 8.66822 11.3245 9.01297 11.75 9.01297Z" fill="#333333"/>
<path d="M19.375 10.7055C19.8005 10.7055 20.25 10.3608 20.25 9.93525V3.9265C20.25 3.501 19.8005 3.15625 19.375 3.15625C18.9495 3.15625 18.5 3.501 18.5 3.9265V9.93525C18.5 10.3608 18.9495 10.7055 19.375 10.7055Z" fill="#333333"/>
<path d="M22 9.01131C22.4255 9.01131 22.75 8.66656 22.75 8.24106V5.62181C22.75 5.19631 22.4255 4.85156 22 4.85156C21.5745 4.85156 21.25 5.19631 21.25 5.62181V8.24106C21.25 8.66656 21.5745 9.01131 22 9.01131Z" fill="#333333"/>
</svg>
