<svg width="24" height="24" viewBox="0 0 24 24" fill="none" xmlns="http://www.w3.org/2000/svg">
<path d="M19.5446 3C19.5446 2.403 19.3068 1.83075 18.8853 1.40925C18.4631 0.987 17.8908 0.75 17.2946 0.75H6.70605C6.1098 0.75 5.53755 0.987 5.1153 1.40925C4.6938 1.83075 4.45605 2.403 4.45605 3V20.691C4.4568 21.5145 4.9068 22.2727 5.63055 22.6672C6.3543 23.061 7.23555 23.028 7.92705 22.581L12.0003 19.9493L16.0736 22.581C16.7651 23.028 17.6463 23.061 18.3701 22.6672C19.0938 22.2727 19.5438 21.5145 19.5446 20.691V3ZM18.0446 3V20.691C18.0438 20.9655 17.8938 21.2182 17.6531 21.3495C17.4116 21.4807 17.1176 21.4695 16.8873 21.321L12.4076 18.4268C12.1593 18.2663 11.8413 18.2663 11.5931 18.4268L7.1133 21.321C6.88305 21.4695 6.58905 21.4807 6.34755 21.3495C6.1068 21.2182 5.9568 20.9655 5.95605 20.691V3C5.95605 2.80125 6.03555 2.61 6.1758 2.46975C6.3168 2.32875 6.5073 2.25 6.70605 2.25H17.2946C17.4933 2.25 17.6838 2.32875 17.8248 2.46975C17.9651 2.61 18.0438 2.80125 18.0446 3V3Z" fill="#333333"/>
<path d="M14.0272 6.21094H9.97266C9.55866 6.21094 9.22266 6.54694 9.22266 6.96094C9.22266 7.37494 9.55866 7.71094 9.97266 7.71094H14.0272C14.4412 7.71094 14.7772 7.37494 14.7772 6.96094C14.7772 6.54694 14.4412 6.21094 14.0272 6.21094Z" fill="#333333"/>
</svg>
