<svg width="24" height="24" viewBox="0 0 24 24" fill="none" xmlns="http://www.w3.org/2000/svg">
<path d="M12 0C5.38321 0 0 5.38321 0 12.0001C0 18.6169 5.38321 24 12 24C18.6168 24 24 18.6169 24 12C24 5.38314 18.6168 0 12 0ZM12 21.981C6.49646 21.981 2.01896 17.5036 2.01896 12.0001C2.01896 6.49653 6.49646 2.01896 12 2.01896C17.5035 2.01896 21.981 6.49646 21.981 12.0001C21.981 17.5037 17.5035 21.981 12 21.981Z" fill="#333333"/>
<path d="M11.9998 4.50391C9.60532 4.50391 7.65723 6.452 7.65723 8.84648C7.65723 9.40398 8.1092 9.85596 8.66671 9.85596C9.22421 9.85596 9.67618 9.40398 9.67618 8.84648C9.67618 7.56525 10.7186 6.52286 11.9998 6.52286C13.281 6.52286 14.3234 7.56525 14.3234 8.84648C14.3234 10.1277 13.281 11.1701 11.9998 11.1701C11.4423 11.1701 10.9903 11.6221 10.9903 12.1796V14.462C10.9903 15.0195 11.4423 15.4715 11.9998 15.4715C12.5573 15.4715 13.0093 15.0195 13.0093 14.462V13.0706C14.9186 12.6144 16.3424 10.8935 16.3424 8.84641C16.3424 6.452 14.3943 4.50391 11.9998 4.50391Z" fill="#333333"/>
<path d="M12.0001 19.3069C12.7806 19.3069 13.4133 18.6742 13.4133 17.8937C13.4133 17.1132 12.7806 16.4805 12.0001 16.4805C11.2196 16.4805 10.5869 17.1132 10.5869 17.8937C10.5869 18.6742 11.2196 19.3069 12.0001 19.3069Z" fill="#333333"/>
</svg>
