<svg width="24" height="24" viewBox="0 0 24 24" fill="none" xmlns="http://www.w3.org/2000/svg">
<path d="M2.20941 3.01172C0.991172 3.01172 0 4.00284 0 5.22108C0 6.43931 0.991172 7.43044 2.20941 7.43044C3.42764 7.43044 4.41877 6.43931 4.41877 5.22108C4.41877 4.00284 3.42764 3.01172 2.20941 3.01172V3.01172ZM2.20941 6.02419C1.76658 6.02419 1.40625 5.66391 1.40625 5.22108C1.40625 4.77825 1.76658 4.41797 2.20941 4.41797C2.65223 4.41797 3.01252 4.77825 3.01252 5.22108C3.01252 5.66391 2.65223 6.02419 2.20941 6.02419Z" fill="#333333"/>
<path d="M2.20941 9.78906C0.991172 9.78906 0 10.7802 0 11.9984C0 13.2167 0.991172 14.2078 2.20941 14.2078C3.42764 14.2078 4.41877 13.2167 4.41877 11.9984C4.41877 10.7802 3.42764 9.78906 2.20941 9.78906V9.78906ZM2.20941 12.8015C1.76658 12.8015 1.40625 12.4412 1.40625 11.9984C1.40625 11.5556 1.76658 11.1953 2.20941 11.1953C2.65223 11.1953 3.01252 11.5556 3.01252 11.9984C3.01252 12.4412 2.65223 12.8015 2.20941 12.8015Z" fill="#333333"/>
<path d="M2.20941 16.5664C0.991172 16.5664 0 17.5575 0 18.7758C0 19.994 0.991172 20.9851 2.20941 20.9851C3.42764 20.9851 4.41877 19.994 4.41877 18.7758C4.41877 17.5575 3.42764 16.5664 2.20941 16.5664V16.5664ZM2.20941 19.5789C1.76658 19.5789 1.40625 19.2186 1.40625 18.7758C1.40625 18.3329 1.76658 17.9727 2.20941 17.9727C2.65223 17.9727 3.01252 18.3329 3.01252 18.7758C3.01252 19.2186 2.65223 19.5789 2.20941 19.5789Z" fill="#333333"/>
<path d="M8.234 7.43044H21.7917C23.0096 7.43044 24.0004 6.43964 24.0004 5.22183C24.0004 4.00247 23.0096 3.01172 21.7917 3.01172H8.234C7.01619 3.01172 6.02539 4.00252 6.02539 5.22183C6.02539 6.43964 7.01619 7.43044 8.234 7.43044V7.43044ZM8.234 4.41797H21.7917C22.2342 4.41797 22.5941 4.77792 22.5941 5.22033C22.5941 5.66428 22.2342 6.02419 21.7917 6.02419H8.234C7.79159 6.02419 7.43164 5.66423 7.43164 5.22033C7.43164 4.77788 7.79159 4.41797 8.234 4.41797V4.41797Z" fill="#333333"/>
<path d="M21.7918 9.78906H8.234C7.01619 9.78906 6.02539 10.7799 6.02539 11.9992C6.02539 13.217 7.01619 14.2078 8.234 14.2078H21.7917C23.0096 14.2078 24.0004 13.217 24.0004 11.9992C24.0004 10.7798 23.0096 9.78906 21.7918 9.78906V9.78906ZM21.7918 12.8015H8.234C7.79159 12.8015 7.43164 12.4416 7.43164 11.9977C7.43164 11.5553 7.79159 11.1953 8.234 11.1953H21.7917C22.2342 11.1953 22.5941 11.5553 22.5941 11.9977C22.5942 12.4416 22.2342 12.8015 21.7918 12.8015V12.8015Z" fill="#333333"/>
<path d="M21.7918 16.5664H8.234C7.01619 16.5664 6.02539 17.5572 6.02539 18.7765C6.02539 19.9943 7.01619 20.9851 8.234 20.9851H21.7917C23.0096 20.9851 24.0004 19.9943 24.0004 18.7765C24.0004 17.5572 23.0096 16.5664 21.7918 16.5664V16.5664ZM21.7918 19.5789H8.234C7.79159 19.5789 7.43164 19.2189 7.43164 18.775C7.43164 18.3326 7.79159 17.9727 8.234 17.9727H21.7917C22.2342 17.9727 22.5941 18.3326 22.5941 18.775C22.5942 19.219 22.2342 19.5789 21.7918 19.5789V19.5789Z" fill="#333333"/>
</svg>
