<svg width="24" height="24" viewBox="0 0 24 24" fill="none" xmlns="http://www.w3.org/2000/svg">
<g clip-path="url(#clip0_1646_647)">
<path d="M22.4951 8.79016L18.2679 12.0024V9.53668C18.2679 9.01886 17.8482 8.59918 17.3304 8.59918H0.9375C0.419678 8.59918 0 9.01886 0 9.53668V23.0623C0 23.58 0.419678 23.9996 0.9375 23.9996H17.3304C17.8482 23.9996 18.2679 23.58 18.2679 23.0623V20.5964L22.4951 23.8087C23.1066 24.2734 23.9998 23.8401 23.9998 23.0623V9.53668C23.9998 8.76306 23.1116 8.32159 22.4951 8.79016V8.79016ZM16.3929 22.1248H1.875V10.4742H16.3929V22.1248ZM22.1248 21.1723L18.2679 18.2415V14.3575L22.1248 11.4265V21.1723ZM4.12335 3.71429C6.07581 1.35388 8.94672 0 11.9998 0C15.0529 0 17.9238 1.35388 19.8765 3.71429C20.2064 4.11328 20.1506 4.70435 19.7516 5.0343C19.3537 5.36334 18.7625 5.30951 18.4316 4.90942C16.8365 2.98096 14.4922 1.875 11.9998 1.875C9.50757 1.875 7.16327 2.98096 5.56824 4.90942C5.23828 5.30841 4.64722 5.36444 4.24823 5.0343C3.84924 4.70435 3.7934 4.11328 4.12335 3.71429ZM15.39 5.22437C15.8306 5.49628 15.9672 6.07397 15.6953 6.51453C15.4237 6.95416 14.8464 7.09222 14.4049 6.81958C13.6829 6.37372 12.8513 6.13806 11.9998 6.13806C11.1486 6.13806 10.3169 6.37372 9.59473 6.81958C9.15417 7.09167 8.57666 6.95508 8.30457 6.51453C8.03247 6.07397 8.16907 5.49628 8.60962 5.22437C9.62805 4.5954 10.8003 4.26306 11.9998 4.26306C13.1995 4.26306 14.3718 4.5954 15.39 5.22437V5.22437Z" fill="#333333"/>
</g>
<defs>
<clipPath id="clip0_1646_647">
<rect width="24" height="24" fill="white"/>
</clipPath>
</defs>
</svg>
