<svg width="24" height="24" viewBox="0 0 24 24" fill="none" xmlns="http://www.w3.org/2000/svg">
<g clip-path="url(#clip0_1655_739)">
<path d="M3.84088 13.125H16.8747C17.496 13.125 17.9997 12.6213 17.9997 12C17.9997 11.3787 17.496 10.875 16.8747 10.875H3.84088L5.29542 9.42048C5.73476 8.98113 5.73476 8.26886 5.29542 7.82951C4.85615 7.39016 4.1438 7.39016 3.70445 7.82951L0.329623 11.2044C0.303298 11.2307 0.278398 11.2583 0.254848 11.2871C0.244573 11.2997 0.235649 11.3129 0.225974 11.3258C0.213599 11.3423 0.200849 11.3584 0.189374 11.3756C0.178874 11.3912 0.169799 11.4075 0.160199 11.4236C0.150974 11.439 0.141299 11.4541 0.132824 11.47C0.123974 11.4865 0.116549 11.5034 0.108599 11.5202C0.100799 11.5367 0.0926244 11.5529 0.0856495 11.5697C0.0788995 11.5861 0.0733495 11.6028 0.0674246 11.6195C0.0608996 11.6375 0.0539997 11.6552 0.0484497 11.6736C0.0434247 11.6903 0.0397498 11.7071 0.0355498 11.724C0.0308248 11.7427 0.0255748 11.7613 0.0218249 11.7803C0.0179999 11.7998 0.0156749 11.8194 0.0128999 11.839C0.0104999 11.8557 0.00727495 11.8722 0.00562496 11.8892C0.00202499 11.9255 0.000149999 11.962 7.49995e-05 11.9984C7.49995e-05 11.999 0 11.9996 0 12.0001C0 12.0006 7.49995e-05 12.0012 7.49995e-05 12.0017C0.000149999 12.0383 0.00202499 12.0747 0.00562496 12.1111C0.00727495 12.1278 0.0104249 12.1441 0.0127499 12.1607C0.0155999 12.1805 0.0179249 12.2003 0.0218249 12.2199C0.0255748 12.2388 0.0307498 12.2571 0.0354748 12.2756C0.0397498 12.2927 0.0434997 12.3098 0.0485997 12.3267C0.0540747 12.3448 0.0608996 12.3623 0.0671996 12.38C0.0732745 12.3969 0.0788245 12.4139 0.0857245 12.4306C0.0925494 12.4471 0.100574 12.4629 0.108224 12.479C0.116324 12.4962 0.123974 12.5135 0.132974 12.5304C0.141224 12.5458 0.150599 12.5604 0.159524 12.5753C0.169349 12.5919 0.178724 12.6086 0.189524 12.6248C0.200474 12.6412 0.212699 12.6566 0.224474 12.6724C0.234674 12.686 0.244123 12.7 0.254998 12.7132C0.277423 12.7405 0.301198 12.7667 0.326023 12.7918C0.327223 12.793 0.328198 12.7943 0.329398 12.7955L3.70438 16.1706C3.92413 16.3903 4.21197 16.5001 4.4999 16.5001C4.78775 16.5001 5.07574 16.3903 5.29534 16.1707C5.73469 15.7313 5.73469 15.019 5.29542 14.5797L3.84088 13.125Z" fill="#333333"/>
<path d="M22.8749 1.875H8.62499C8.0037 1.875 7.5 2.3787 7.5 2.99999V7.49996C7.5 8.12126 8.0037 8.62496 8.62499 8.62496C9.24629 8.62496 9.74999 8.12126 9.74999 7.49996V4.12499H21.7499V19.875H9.74999V16.4999C9.74999 15.8786 9.24629 15.3749 8.62499 15.3749C8.0037 15.3749 7.5 15.8786 7.5 16.4999V21C7.5 21.6213 8.0037 22.1249 8.62499 22.1249H22.8749C23.4962 22.1249 23.9999 21.6213 23.9999 21V2.99999C23.9999 2.3787 23.4962 1.875 22.8749 1.875Z" fill="#333333"/>
</g>
<defs>
<clipPath id="clip0_1655_739">
<rect width="24" height="24" fill="white"/>
</clipPath>
</defs>
</svg>
