<svg width="24" height="24" viewBox="0 0 24 24" fill="none" xmlns="http://www.w3.org/2000/svg">
<path d="M12.0232 0C9.09622 0.111703 9.09664 4.30753 12.0232 4.41877C19.9707 4.64944 21.9624 14.3141 16.4768 18.1338C14.1648 19.9709 16.6712 23.3344 19.0779 21.7061C27.7655 15.6439 24.5855 0.361594 12.0232 0ZM18.2502 20.5692C17.3654 21.163 16.4688 19.9291 17.3046 19.2705C23.8096 14.7342 21.4393 3.28631 12.0231 3.01247C11.5804 3.01252 11.2201 2.65223 11.2201 2.20941C11.2201 1.76658 11.5803 1.40625 12.0232 1.40625C23.1343 1.73063 25.9063 15.2371 18.2502 20.5692V20.5692Z" fill="#333333"/>
<path d="M12.0232 19.5827C9.99984 19.5827 8.09653 18.7936 6.6638 17.3609C5.80233 16.4995 4.40072 16.4995 3.53925 17.3609C2.67647 18.2237 2.67497 19.6212 3.53925 20.4855C5.80669 22.7528 8.81962 24.0014 12.0232 24.0014C14.9489 23.8909 14.9506 19.6938 12.0232 19.5827ZM12.0232 22.5952C9.19528 22.5952 6.53541 21.4928 4.53361 19.4911C4.21992 19.1774 4.21955 18.6693 4.53361 18.3553C4.84659 18.0423 5.35608 18.0419 5.66944 18.3553C7.36777 20.0536 9.62428 20.9889 12.0232 20.9889C13.0855 21.0284 13.0882 22.5546 12.0232 22.5952V22.5952Z" fill="#333333"/>
<path d="M6.66389 6.64197C6.94561 6.36053 7.25025 6.1001 7.56975 5.86769C9.87042 4.05386 7.39917 0.662783 4.9687 2.29535C4.464 2.6628 3.9832 3.07389 3.53939 3.51733C1.54467 5.66467 4.51772 8.6327 6.66389 6.64197V6.64197ZM4.53356 4.51188C4.92567 4.12005 5.35054 3.75677 5.79633 3.4322C6.14672 3.17716 6.65208 3.24283 6.91837 3.6086C7.17904 3.96667 7.09982 4.47016 6.74212 4.73074C6.36393 5.00585 6.00314 5.31424 5.66976 5.64733C5.66972 5.64738 5.66962 5.64742 5.66957 5.64752C5.3564 5.96064 4.84687 5.96069 4.53375 5.64752C4.22015 5.33397 4.21954 4.82589 4.53356 4.51188V4.51188Z" fill="#333333"/>
<path d="M17.9986 12.0002C17.9986 10.7908 17.0214 9.79081 15.7893 9.79081H14.233V8.23456C14.1314 5.31945 9.92764 5.29503 9.81425 8.23456V9.79081H8.258C5.34186 9.89267 5.3195 14.0968 8.258 14.2096H9.81425V15.7658C9.91583 18.6809 14.1196 18.7054 14.233 15.7658V14.2096H15.7893C16.9988 14.2095 17.9986 13.2322 17.9986 12.0002V12.0002ZM13.5298 12.8033C13.1415 12.8033 12.8267 13.1181 12.8267 13.5064V15.7658C12.788 16.8294 11.2597 16.8305 11.2205 15.7658V13.5064C11.2205 13.1181 10.9056 12.8033 10.5173 12.8033H8.25795C7.1944 12.7646 7.19333 11.2363 8.25795 11.197H10.5173C10.9056 11.197 11.2205 10.8822 11.2205 10.4939V8.23452C11.2592 7.17092 12.7874 7.16984 12.8267 8.23452V10.4939C12.8267 10.8822 13.1415 11.197 13.5298 11.197H15.7892C16.8528 11.2357 16.8538 12.764 15.7892 12.8033H13.5298Z" fill="#333333"/>
<path d="M4.53451 13.1876C4.41137 12.407 4.41137 11.5916 4.53451 10.8111C4.7244 9.60503 3.90198 8.47474 2.6957 8.28513C1.48942 8.095 0.359402 8.91757 0.169512 10.1239C-0.0252539 11.3583 -0.0252539 12.6404 0.169512 13.8748C0.359402 15.0811 1.48937 15.9037 2.6957 15.7136C3.90198 15.5239 4.7244 14.3936 4.53451 13.1876ZM3.14537 13.4062V13.4063C3.21423 13.8437 2.91657 14.2553 2.47675 14.3244C2.03828 14.3933 1.62775 14.0947 1.55865 13.656C1.38671 12.5662 1.38671 11.4324 1.55865 10.3425C1.62775 9.90386 2.03828 9.60522 2.47675 9.67413C2.91657 9.74327 3.21423 10.1548 3.14537 10.5923V10.5923C2.99945 11.5176 2.99945 12.481 3.14537 13.4062V13.4062Z" fill="#333333"/>
</svg>
