<?xml version="1.0"?>
<svg xmlns="http://www.w3.org/2000/svg" xmlns:xlink="http://www.w3.org/1999/xlink" xmlns:svgjs="http://svgjs.com/svgjs" version="1.1" width="512" height="512" x="0" y="0" viewBox="0 0 527.972 527.972" style="enable-background:new 0 0 512 512" xml:space="preserve" class=""><g><g xmlns="http://www.w3.org/2000/svg"><g><path d="m263.986 527.972c-34.845 0-68.833-6.762-101.024-20.096-32.19-13.334-61.005-32.587-85.642-57.223-24.638-24.639-43.891-53.453-57.226-85.643-13.333-32.191-20.094-66.182-20.094-101.024 0-34.843 6.761-68.832 20.094-101.024 13.334-32.19 32.588-61.005 57.225-85.643s53.453-43.891 85.643-57.225c32.192-13.333 66.181-20.094 101.024-20.094 34.842 0 68.83 6.761 101.022 20.094 32.191 13.334 61.006 32.588 85.644 57.225 24.639 24.638 43.891 53.453 57.225 85.644s20.095 66.179 20.095 101.023c0 34.843-6.762 68.833-20.096 101.024-13.334 32.189-32.587 61.004-57.222 85.642-24.64 24.638-53.455 43.89-85.644 57.224-32.191 13.334-66.181 20.096-101.024 20.096zm0-475.174c-56.411 0-109.445 21.967-149.333 61.855s-61.855 92.922-61.855 149.333c0 27.874 5.408 55.066 16.076 80.82 10.666 25.75 26.069 48.803 45.78 68.513 19.71 19.708 42.761 35.111 68.514 45.779 25.752 10.667 52.943 16.075 80.819 16.075s55.066-5.408 80.819-16.075c25.752-10.668 48.804-26.071 68.516-45.78 19.707-19.71 35.11-42.762 45.778-68.514 10.667-25.752 16.075-52.943 16.075-80.818 0-56.411-21.967-109.446-61.854-149.333-39.891-39.888-92.926-61.855-149.335-61.855zm0 316.783c-14.58 0-26.399-11.82-26.399-26.399v-52.796h-52.797c-14.58 0-26.399-11.82-26.399-26.399 0-14.58 11.819-26.399 26.399-26.399h52.797v-52.798c0-14.58 11.819-26.399 26.399-26.399 14.579 0 26.399 11.819 26.399 26.399v52.797h52.796c14.58 0 26.399 11.819 26.399 26.399 0 14.579-11.82 26.399-26.399 26.399h-52.796v52.796c0 14.58-11.82 26.4-26.399 26.4z" fill="#E175F9" data-original="#000000"/></g></g></g></svg>
